<?xml version="1.0" encoding="UTF-8"?>
<svg xmlns="http://www.w3.org/2000/svg" width="800.000" height="600.000" viewBox="0.0 0.0 800.000 600.000" version="1.1">
  <title>Produce by Acme CAD Converter</title>
  <desc>Produce by Acme CAD Converter</desc>
<path d="M330.54 384.57L330.73 383.41M330.73 383.41L331.29 382.37M331.29 382.37L332.16 381.57M332.16 381.57L333.24 381.09M333.24 381.09L334.42 381M334.42 381L335.56 381.29M335.56 381.29L336.55 381.93M336.55 381.93L337.28 382.86M337.28 382.86L337.66 383.98M337.66 383.98L337.66 385.16M337.66 385.16L337.28 386.28M337.28 386.28L336.55 387.21M336.55 387.21L335.56 387.86M335.56 387.86L334.42 388.15M334.42 388.15L333.24 388.05M333.24 388.05L332.16 387.57M332.16 387.57L331.29 386.78M331.29 386.78L330.73 385.74M330.73 385.74L330.54 384.57"
fill="none" stroke="black" stroke-width="0.5"/>
<path d="M330.54 109.92L330.73 108.75M330.73 108.75L331.29 107.71M331.29 107.71L332.16 106.91M332.16 106.91L333.24 106.44M333.24 106.44L334.42 106.34M334.42 106.34L335.56 106.63M335.56 106.63L336.55 107.28M336.55 107.28L337.28 108.21M337.28 108.21L337.66 109.33M337.66 109.33L337.66 110.51M337.66 110.51L337.28 111.63M337.28 111.63L336.55 112.56M336.55 112.56L335.56 113.2M335.56 113.2L334.42 113.49M334.42 113.49L333.24 113.4M333.24 113.4L332.16 112.92M332.16 112.92L331.29 112.12M331.29 112.12L330.73 111.08M330.73 111.08L330.54 109.92"
fill="none" stroke="black" stroke-width="0.5"/>
<path d="M455.82 384.57L456.02 383.41M456.02 383.41L456.58 382.37M456.58 382.37L457.45 381.57M457.45 381.57L458.53 381.09M458.53 381.09L459.71 381M459.71 381L460.85 381.29M460.85 381.29L461.84 381.93M461.84 381.93L462.56 382.86M462.56 382.86L462.95 383.98M462.95 383.98L462.95 385.16M462.95 385.16L462.56 386.28M462.56 386.28L461.84 387.21M461.84 387.21L460.85 387.86M460.85 387.86L459.71 388.15M459.71 388.15L458.53 388.05M458.53 388.05L457.45 387.57M457.45 387.57L456.58 386.78M456.58 386.78L456.02 385.74M456.02 385.74L455.82 384.57"
fill="none" stroke="black" stroke-width="0.5"/>
<path d="M455.82 109.92L456.02 108.75M456.02 108.75L456.58 107.71M456.58 107.71L457.45 106.91M457.45 106.91L458.53 106.44M458.53 106.44L459.71 106.34M459.71 106.34L460.85 106.63M460.85 106.63L461.84 107.28M461.84 107.28L462.56 108.21M462.56 108.21L462.95 109.33M462.95 109.33L462.95 110.51M462.95 110.51L462.56 111.63M462.56 111.63L461.84 112.56M461.84 112.56L460.85 113.2M460.85 113.2L459.71 113.49M459.71 113.49L458.53 113.4M458.53 113.4L457.45 112.92M457.45 112.92L456.58 112.12M456.58 112.12L456.02 111.08M456.02 111.08L455.82 109.92"
fill="none" stroke="black" stroke-width="0.5"/>
<path d="M317.31 391.3L317.31 103.19M317.31 103.19L476.05 103.19M476.05 103.19L476.05 391.3M476.05 391.3L317.31 391.3"
fill="none" stroke="black" stroke-width="0.5"/>
<path d="M331.2 319.55L331.39 317.9M331.39 317.9L331.96 316.33M331.96 316.33L332.88 314.94M332.88 314.94L334.09 313.8M334.09 313.8L335.53 312.96M335.53 312.96L337.13 312.49M337.13 312.49L338.79 312.39M338.79 312.39L340.43 312.68M340.43 312.68L341.96 313.34M341.96 313.34L343.3 314.33M343.3 314.33L344.37 315.61M344.37 315.61L345.11 317.1M345.11 317.1L345.5 318.72M345.5 318.72L345.5 320.38M345.5 320.38L345.11 322.01M345.11 322.01L344.37 323.49M344.37 323.49L343.3 324.77M343.3 324.77L341.96 325.77M341.96 325.77L340.43 326.42M340.43 326.42L338.79 326.71M338.79 326.71L337.13 326.62M337.13 326.62L335.53 326.14M335.53 326.14L334.09 325.31M334.09 325.31L332.88 324.16M332.88 324.16L331.96 322.77M331.96 322.77L331.39 321.21M331.39 321.21L331.2 319.55"
fill="none" stroke="black" stroke-width="0.5"/>
<path d="M360.34 319.55L360.54 317.9M360.54 317.9L361.11 316.33M361.11 316.33L362.02 314.94M362.02 314.94L363.23 313.8M363.23 313.8L364.68 312.96M364.68 312.96L366.27 312.49M366.27 312.49L367.94 312.39M367.94 312.39L369.58 312.68M369.58 312.68L371.11 313.34M371.11 313.34L372.44 314.33M372.44 314.33L373.51 315.61M373.51 315.61L374.26 317.1M374.26 317.1L374.64 318.72M374.64 318.72L374.64 320.38M374.64 320.38L374.26 322.01M374.26 322.01L373.51 323.49M373.51 323.49L372.44 324.77M372.44 324.77L371.11 325.77M371.11 325.77L369.58 326.42M369.58 326.42L367.94 326.71M367.94 326.71L366.27 326.62M366.27 326.62L364.68 326.14M364.68 326.14L363.23 325.31M363.23 325.31L362.02 324.16M362.02 324.16L361.11 322.77M361.11 322.77L360.54 321.21M360.54 321.21L360.34 319.55"
fill="none" stroke="black" stroke-width="0.5"/>
<path d="M389.49 319.55L389.68 317.9M389.68 317.9L390.25 316.33M390.25 316.33L391.17 314.94M391.17 314.94L392.38 313.8M392.38 313.8L393.82 312.96M393.82 312.96L395.42 312.49M395.42 312.49L397.08 312.39M397.08 312.39L398.72 312.68M398.72 312.68L400.25 313.34M400.25 313.34L401.59 314.33M401.59 314.33L402.66 315.61M402.66 315.61L403.41 317.1M403.41 317.1L403.79 318.72M403.79 318.72L403.79 320.38M403.79 320.38L403.41 322.01M403.41 322.01L402.66 323.49M402.66 323.49L401.59 324.77M401.59 324.77L400.25 325.77M400.25 325.77L398.72 326.42M398.72 326.42L397.08 326.71M397.08 326.71L395.42 326.62M395.42 326.62L393.82 326.14M393.82 326.14L392.38 325.31M392.38 325.31L391.17 324.16M391.17 324.16L390.25 322.77M390.25 322.77L389.68 321.21M389.68 321.21L389.49 319.55"
fill="none" stroke="black" stroke-width="0.5"/>
<path d="M418.64 319.55L418.83 317.9M418.83 317.9L419.4 316.33M419.4 316.33L420.32 314.94M420.32 314.94L421.53 313.8M421.53 313.8L422.97 312.96M422.97 312.96L424.57 312.49M424.57 312.49L426.23 312.39M426.23 312.39L427.87 312.68M427.87 312.68L429.4 313.34M429.4 313.34L430.74 314.33M430.74 314.33L431.81 315.61M431.81 315.61L432.55 317.1M432.55 317.1L432.94 318.72M432.94 318.72L432.94 320.38M432.94 320.38L432.55 322.01M432.55 322.01L431.81 323.49M431.81 323.49L430.74 324.77M430.74 324.77L429.4 325.77M429.4 325.77L427.87 326.42M427.87 326.42L426.23 326.71M426.23 326.71L424.57 326.62M424.57 326.62L422.97 326.14M422.97 326.14L421.53 325.31M421.53 325.31L420.32 324.16M420.32 324.16L419.4 322.77M419.4 322.77L418.83 321.21M418.83 321.21L418.64 319.55"
fill="none" stroke="black" stroke-width="0.5"/>
<path d="M447.78 319.55L447.98 317.9M447.98 317.9L448.55 316.33M448.55 316.33L449.46 314.94M449.46 314.94L450.68 313.8M450.68 313.8L452.12 312.96M452.12 312.96L453.71 312.49M453.71 312.49L455.38 312.39M455.38 312.39L457.02 312.68M457.02 312.68L458.55 313.34M458.55 313.34L459.88 314.33M459.88 314.33L460.95 315.61M460.95 315.61L461.7 317.1M461.7 317.1L462.09 318.72M462.09 318.72L462.09 320.38M462.09 320.38L461.7 322.01M461.7 322.01L460.95 323.49M460.95 323.49L459.88 324.77M459.88 324.77L458.55 325.77M458.55 325.77L457.02 326.42M457.02 326.42L455.38 326.71M455.38 326.71L453.71 326.62M453.71 326.62L452.12 326.14M452.12 326.14L450.68 325.31M450.68 325.31L449.46 324.16M449.46 324.16L448.55 322.77M448.55 322.77L447.98 321.21M447.98 321.21L447.78 319.55"
fill="none" stroke="black" stroke-width="0.5"/>
<path d="M331.2 352.29L331.39 350.63M331.39 350.63L331.96 349.07M331.96 349.07L332.88 347.67M332.88 347.67L334.09 346.53M334.09 346.53L335.53 345.7M335.53 345.7L337.13 345.22M337.13 345.22L338.79 345.12M338.79 345.12L340.43 345.41M340.43 345.41L341.96 346.07M341.96 346.07L343.3 347.07M343.3 347.07L344.37 348.34M344.37 348.34L345.11 349.83M345.11 349.83L345.5 351.45M345.5 351.45L345.5 353.12M345.5 353.12L345.11 354.74M345.11 354.74L344.37 356.23M344.37 356.23L343.3 357.5M343.3 357.5L341.96 358.5M341.96 358.5L340.43 359.16M340.43 359.16L338.79 359.45M338.79 359.45L337.13 359.35M337.13 359.35L335.53 358.87M335.53 358.87L334.09 358.04M334.09 358.04L332.88 356.9M332.88 356.9L331.96 355.51M331.96 355.51L331.39 353.94M331.39 353.94L331.2 352.29"
fill="none" stroke="black" stroke-width="0.5"/>
<path d="M360.34 352.29L360.54 350.63M360.54 350.63L361.11 349.07M361.11 349.07L362.02 347.67M362.02 347.67L363.23 346.53M363.23 346.53L364.68 345.7M364.68 345.7L366.27 345.22M366.27 345.22L367.94 345.12M367.94 345.12L369.58 345.41M369.58 345.41L371.11 346.07M371.11 346.07L372.44 347.07M372.44 347.07L373.51 348.34M373.51 348.34L374.26 349.83M374.26 349.83L374.64 351.45M374.64 351.45L374.64 353.12M374.64 353.12L374.26 354.74M374.26 354.74L373.51 356.23M373.51 356.23L372.44 357.5M372.44 357.5L371.11 358.5M371.11 358.5L369.58 359.16M369.58 359.16L367.94 359.45M367.94 359.45L366.27 359.35M366.27 359.35L364.68 358.87M364.68 358.87L363.23 358.04M363.23 358.04L362.02 356.9M362.02 356.9L361.11 355.51M361.11 355.51L360.54 353.94M360.54 353.94L360.34 352.29"
fill="none" stroke="black" stroke-width="0.5"/>
<path d="M389.49 352.29L389.68 350.63M389.68 350.63L390.25 349.07M390.25 349.07L391.17 347.67M391.17 347.67L392.38 346.53M392.38 346.53L393.82 345.7M393.82 345.7L395.42 345.22M395.42 345.22L397.08 345.12M397.08 345.12L398.72 345.41M398.72 345.41L400.25 346.07M400.25 346.07L401.59 347.07M401.59 347.07L402.66 348.34M402.66 348.34L403.41 349.83M403.41 349.83L403.79 351.45M403.79 351.45L403.79 353.12M403.79 353.12L403.41 354.74M403.41 354.74L402.66 356.23M402.66 356.23L401.59 357.5M401.59 357.5L400.25 358.5M400.25 358.5L398.72 359.16M398.72 359.16L397.08 359.45M397.08 359.45L395.42 359.35M395.42 359.35L393.82 358.87M393.82 358.87L392.38 358.04M392.38 358.04L391.17 356.9M391.17 356.9L390.25 355.51M390.25 355.51L389.68 353.94M389.68 353.94L389.49 352.29"
fill="none" stroke="black" stroke-width="0.5"/>
<path d="M418.64 352.29L418.83 350.63M418.83 350.63L419.4 349.07M419.4 349.07L420.32 347.67M420.32 347.67L421.53 346.53M421.53 346.53L422.97 345.7M422.97 345.7L424.57 345.22M424.57 345.22L426.23 345.12M426.23 345.12L427.87 345.41M427.87 345.41L429.4 346.07M429.4 346.07L430.74 347.07M430.74 347.07L431.81 348.34M431.81 348.34L432.55 349.83M432.55 349.83L432.94 351.45M432.94 351.45L432.94 353.12M432.94 353.12L432.55 354.74M432.55 354.74L431.81 356.23M431.81 356.23L430.74 357.5M430.74 357.5L429.4 358.5M429.4 358.5L427.87 359.16M427.87 359.16L426.23 359.45M426.23 359.45L424.57 359.35M424.57 359.35L422.97 358.87M422.97 358.87L421.53 358.04M421.53 358.04L420.32 356.9M420.32 356.9L419.4 355.51M419.4 355.51L418.83 353.94M418.83 353.94L418.64 352.29"
fill="none" stroke="black" stroke-width="0.5"/>
<path d="M447.78 352.29L447.98 350.63M447.98 350.63L448.55 349.07M448.55 349.07L449.46 347.67M449.46 347.67L450.68 346.53M450.68 346.53L452.12 345.7M452.12 345.7L453.71 345.22M453.71 345.22L455.38 345.12M455.38 345.12L457.02 345.41M457.02 345.41L458.55 346.07M458.55 346.07L459.88 347.07M459.88 347.07L460.95 348.34M460.95 348.34L461.7 349.83M461.7 349.83L462.09 351.45M462.09 351.45L462.09 353.12M462.09 353.12L461.7 354.74M461.7 354.74L460.95 356.23M460.95 356.23L459.88 357.5M459.88 357.5L458.55 358.5M458.55 358.5L457.02 359.16M457.02 359.16L455.38 359.45M455.38 359.45L453.71 359.35M453.71 359.35L452.12 358.87M452.12 358.87L450.68 358.04M450.68 358.04L449.46 356.9M449.46 356.9L448.55 355.51M448.55 355.51L447.98 353.94M447.98 353.94L447.78 352.29"
fill="none" stroke="black" stroke-width="0.5"/>
<path d="M330.75 284.01L330.94 282.32M330.94 282.32L331.5 280.71M331.5 280.71L332.41 279.26M332.41 279.26L333.62 278.05M333.62 278.05L335.06 277.15M335.06 277.15L336.68 276.58M336.68 276.58L338.37 276.39M338.37 276.39L340.07 276.58M340.07 276.58L341.68 277.15M341.68 277.15L343.12 278.05M343.12 278.05L344.33 279.26M344.33 279.26L345.24 280.71M345.24 280.71L345.8 282.32M345.8 282.32L345.99 284.01M345.99 284.01L345.8 285.71M345.8 285.71L345.24 287.32M345.24 287.32L344.33 288.77M344.33 288.77L343.12 289.97M343.12 289.97L341.68 290.88M341.68 290.88L340.07 291.45M340.07 291.45L338.37 291.64M338.37 291.64L336.68 291.45M336.68 291.45L335.06 290.88M335.06 290.88L333.62 289.97M333.62 289.97L332.41 288.77M332.41 288.77L331.5 287.32M331.5 287.32L330.94 285.71M330.94 285.71L330.75 284.01"
fill="none" stroke="black" stroke-width="0.5"/>
<path d="M359.9 284.01L360.09 282.32M360.09 282.32L360.65 280.71M360.65 280.71L361.56 279.26M361.56 279.26L362.77 278.05M362.77 278.05L364.21 277.15M364.21 277.15L365.82 276.58M365.82 276.58L367.52 276.39M367.52 276.39L369.22 276.58M369.22 276.58L370.83 277.15M370.83 277.15L372.27 278.05M372.27 278.05L373.48 279.26M373.48 279.26L374.39 280.71M374.39 280.71L374.95 282.32M374.95 282.32L375.14 284.01M375.14 284.01L374.95 285.71M374.95 285.71L374.39 287.32M374.39 287.32L373.48 288.77M373.48 288.77L372.27 289.97M372.27 289.97L370.83 290.88M370.83 290.88L369.22 291.45M369.22 291.45L367.52 291.64M367.52 291.64L365.82 291.45M365.82 291.45L364.21 290.88M364.21 290.88L362.77 289.97M362.77 289.97L361.56 288.77M361.56 288.77L360.65 287.32M360.65 287.32L360.09 285.71M360.09 285.71L359.9 284.01"
fill="none" stroke="black" stroke-width="0.5"/>
<path d="M389.04 284.01L389.23 282.32M389.23 282.32L389.8 280.71M389.8 280.71L390.71 279.26M390.71 279.26L391.91 278.05M391.91 278.05L393.36 277.15M393.36 277.15L394.97 276.58M394.97 276.58L396.67 276.39M396.67 276.39L398.36 276.58M398.36 276.58L399.97 277.15M399.97 277.15L401.42 278.05M401.42 278.05L402.63 279.26M402.63 279.26L403.53 280.71M403.53 280.71L404.1 282.32M404.1 282.32L404.29 284.01M404.29 284.01L404.1 285.71M404.1 285.71L403.53 287.32M403.53 287.32L402.63 288.77M402.63 288.77L401.42 289.97M401.42 289.97L399.97 290.88M399.97 290.88L398.36 291.45M398.36 291.45L396.67 291.64M396.67 291.64L394.97 291.45M394.97 291.45L393.36 290.88M393.36 290.88L391.91 289.97M391.91 289.97L390.71 288.77M390.71 288.77L389.8 287.32M389.8 287.32L389.23 285.71M389.23 285.71L389.04 284.01"
fill="none" stroke="black" stroke-width="0.5"/>
<path d="M418.19 284.01L418.38 282.32M418.38 282.32L418.94 280.71M418.94 280.71L419.85 279.26M419.85 279.26L421.06 278.05M421.06 278.05L422.51 277.15M422.51 277.15L424.12 276.58M424.12 276.58L425.81 276.39M425.81 276.39L427.51 276.58M427.51 276.58L429.12 277.15M429.12 277.15L430.57 278.05M430.57 278.05L431.77 279.26M431.77 279.26L432.68 280.71M432.68 280.71L433.24 282.32M433.24 282.32L433.44 284.01M433.44 284.01L433.24 285.71M433.24 285.71L432.68 287.32M432.68 287.32L431.77 288.77M431.77 288.77L430.57 289.97M430.57 289.97L429.12 290.88M429.12 290.88L427.51 291.45M427.51 291.45L425.81 291.64M425.81 291.64L424.12 291.45M424.12 291.45L422.51 290.88M422.51 290.88L421.06 289.97M421.06 289.97L419.85 288.77M419.85 288.77L418.94 287.32M418.94 287.32L418.38 285.71M418.38 285.71L418.19 284.01"
fill="none" stroke="black" stroke-width="0.5"/>
<path d="M447.34 284.01L447.53 282.32M447.53 282.32L448.09 280.71M448.09 280.71L449 279.26M449 279.26L450.21 278.05M450.21 278.05L451.65 277.15M451.65 277.15L453.26 276.58M453.26 276.58L454.96 276.39M454.96 276.39L456.66 276.58M456.66 276.58L458.27 277.15M458.27 277.15L459.71 278.05M459.71 278.05L460.92 279.26M460.92 279.26L461.83 280.71M461.83 280.71L462.39 282.32M462.39 282.32L462.58 284.01M462.58 284.01L462.39 285.71M462.39 285.71L461.83 287.32M461.83 287.32L460.92 288.77M460.92 288.77L459.71 289.97M459.71 289.97L458.27 290.88M458.27 290.88L456.66 291.45M456.66 291.45L454.96 291.64M454.96 291.64L453.26 291.45M453.26 291.45L451.65 290.88M451.65 290.88L450.21 289.97M450.21 289.97L449 288.77M449 288.77L448.09 287.32M448.09 287.32L447.53 285.71M447.53 285.71L447.34 284.01"
fill="none" stroke="black" stroke-width="0.5"/>
<path d="M334.9 239.17L335.09 237.37M335.09 237.37L335.67 235.64M335.67 235.64L336.61 234.09M336.61 234.09L337.86 232.77M337.86 232.77L339.37 231.75M339.37 231.75L341.06 231.07M341.06 231.07L342.85 230.78M342.85 230.78L344.66 230.88M344.66 230.88L346.42 231.36M346.42 231.36L348.02 232.21M348.02 232.21L349.41 233.39M349.41 233.39L350.51 234.84M350.51 234.84L351.27 236.49M351.27 236.49L351.66 238.26M351.66 238.26L351.66 240.08M351.66 240.08L351.27 241.86M351.27 241.86L350.51 243.51M350.51 243.51L349.41 244.96M349.41 244.96L348.02 246.13M348.02 246.13L346.42 246.98M346.42 246.98L344.66 247.47M344.66 247.47L342.85 247.57M342.85 247.57L341.06 247.27M341.06 247.27L339.37 246.6M339.37 246.6L337.86 245.58M337.86 245.58L336.61 244.26M336.61 244.26L335.67 242.7M335.67 242.7L335.09 240.98M335.09 240.98L334.9 239.17"
fill="none" stroke="black" stroke-width="0.5"/>
<path d="M388.26 239.17L388.45 237.37M388.45 237.37L389.03 235.64M389.03 235.64L389.97 234.09M389.97 234.09L391.22 232.77M391.22 232.77L392.73 231.75M392.73 231.75L394.42 231.07M394.42 231.07L396.21 230.78M396.21 230.78L398.03 230.88M398.03 230.88L399.78 231.36M399.78 231.36L401.38 232.21M401.38 232.21L402.77 233.39M402.77 233.39L403.87 234.84M403.87 234.84L404.63 236.49M404.63 236.49L405.02 238.26M405.02 238.26L405.02 240.08M405.02 240.08L404.63 241.86M404.63 241.86L403.87 243.51M403.87 243.51L402.77 244.96M402.77 244.96L401.38 246.13M401.38 246.13L399.78 246.98M399.78 246.98L398.03 247.47M398.03 247.47L396.21 247.57M396.21 247.57L394.42 247.27M394.42 247.27L392.73 246.6M392.73 246.6L391.22 245.58M391.22 245.58L389.97 244.26M389.97 244.26L389.03 242.7M389.03 242.7L388.45 240.98M388.45 240.98L388.26 239.17"
fill="none" stroke="black" stroke-width="0.5"/>
<path d="M441.62 239.17L441.82 237.37M441.82 237.37L442.4 235.64M442.4 235.64L443.33 234.09M443.33 234.09L444.58 232.77M444.58 232.77L446.09 231.75M446.09 231.75L447.78 231.07M447.78 231.07L449.57 230.78M449.57 230.78L451.39 230.88M451.39 230.88L453.14 231.36M453.14 231.36L454.75 232.21M454.75 232.21L456.13 233.39M456.13 233.39L457.23 234.84M457.23 234.84L457.99 236.49M457.99 236.49L458.39 238.26M458.39 238.26L458.39 240.08M458.39 240.08L457.99 241.86M457.99 241.86L457.23 243.51M457.23 243.51L456.13 244.96M456.13 244.96L454.75 246.13M454.75 246.13L453.14 246.98M453.14 246.98L451.39 247.47M451.39 247.47L449.57 247.57M449.57 247.57L447.78 247.27M447.78 247.27L446.09 246.6M446.09 246.6L444.58 245.58M444.58 245.58L443.33 244.26M443.33 244.26L442.4 242.7M442.4 242.7L441.82 240.98M441.82 240.98L441.62 239.17"
fill="none" stroke="black" stroke-width="0.5"/>
<path d="M351.26 178.19L351.46 176.38M351.46 176.38L352.04 174.66M352.04 174.66L352.98 173.1M352.98 173.1L354.23 171.78M354.23 171.78L355.73 170.76M355.73 170.76L357.42 170.09M357.42 170.09L359.22 169.79M359.22 169.79L361.03 169.89M361.03 169.89L362.78 170.38M362.78 170.38L364.39 171.23M364.39 171.23L365.78 172.41M365.78 172.41L366.88 173.85M366.88 173.85L367.64 175.5M367.64 175.5L368.03 177.28M368.03 177.28L368.03 179.1M368.03 179.1L367.64 180.87M367.64 180.87L366.88 182.52M366.88 182.52L365.78 183.97M365.78 183.97L364.39 185.15M364.39 185.15L362.78 186M362.78 186L361.03 186.49M361.03 186.49L359.22 186.58M359.22 186.58L357.42 186.29M357.42 186.29L355.73 185.62M355.73 185.62L354.23 184.6M354.23 184.6L352.98 183.28M352.98 183.28L352.04 181.72M352.04 181.72L351.46 180M351.46 180L351.26 178.19"
fill="none" stroke="black" stroke-width="0.5"/>
<path d="M425.25 178.19L425.45 176.38M425.45 176.38L426.03 174.66M426.03 174.66L426.97 173.1M426.97 173.1L428.22 171.78M428.22 171.78L429.72 170.76M429.72 170.76L431.41 170.09M431.41 170.09L433.2 169.79M433.2 169.79L435.02 169.89M435.02 169.89L436.77 170.38M436.77 170.38L438.38 171.23M438.38 171.23L439.76 172.41M439.76 172.41L440.86 173.85M440.86 173.85L441.63 175.5M441.63 175.5L442.02 177.28M442.02 177.28L442.02 179.1M442.02 179.1L441.63 180.87M441.63 180.87L440.86 182.52M440.86 182.52L439.76 183.97M439.76 183.97L438.38 185.15M438.38 185.15L436.77 186M436.77 186L435.02 186.49M435.02 186.49L433.2 186.58M433.2 186.58L431.41 186.29M431.41 186.29L429.72 185.62M429.72 185.62L428.22 184.6M428.22 184.6L426.97 183.28M426.97 183.28L426.03 181.72M426.03 181.72L425.45 180M425.45 180L425.25 178.19"
fill="none" stroke="black" stroke-width="0.5"/>
<path d="M328.17 139.4L328.37 137.89M328.37 137.89L328.95 136.49M328.95 136.49L329.88 135.28M329.88 135.28L331.09 134.35M331.09 134.35L332.49 133.77M332.49 133.77L334 133.57M334 133.57L335.51 133.77M335.51 133.77L336.91 134.35M336.91 134.35L338.12 135.28M338.12 135.28L339.05 136.49M339.05 136.49L339.63 137.89M339.63 137.89L339.83 139.4M339.83 139.4L339.63 140.91M339.63 140.91L339.05 142.32M339.05 142.32L338.12 143.52M338.12 143.52L336.91 144.45M336.91 144.45L335.51 145.03M335.51 145.03L334 145.23M334 145.23L332.49 145.03M332.49 145.03L331.09 144.45M331.09 144.45L329.88 143.52M329.88 143.52L328.95 142.32M328.95 142.32L328.37 140.91M328.37 140.91L328.17 139.4"
fill="none" stroke="black" stroke-width="0.5"/>
<path d="M453.5 139.4L453.7 137.89M453.7 137.89L454.28 136.49M454.28 136.49L455.21 135.28M455.21 135.28L456.42 134.35M456.42 134.35L457.82 133.77M457.82 133.77L459.33 133.57M459.33 133.57L460.84 133.77M460.84 133.77L462.25 134.35M462.25 134.35L463.45 135.28M463.45 135.28L464.38 136.49M464.38 136.49L464.96 137.89M464.96 137.89L465.16 139.4M465.16 139.4L464.96 140.91M464.96 140.91L464.38 142.32M464.38 142.32L463.45 143.52M463.45 143.52L462.25 144.45M462.25 144.45L460.84 145.03M460.84 145.03L459.33 145.23M459.33 145.23L457.82 145.03M457.82 145.03L456.42 144.45M456.42 144.45L455.21 143.52M455.21 143.52L454.28 142.32M454.28 142.32L453.7 140.91M453.7 140.91L453.5 139.4"
fill="none" stroke="black" stroke-width="0.5"/>
<path d="M344.76 139.4L344.95 138.27M344.95 138.27L345.49 137.27M345.49 137.27L346.34 136.49M346.34 136.49L347.38 136.03M347.38 136.03L348.52 135.94M348.52 135.94L349.63 136.22M349.63 136.22L350.59 136.84M350.59 136.84L351.29 137.75M351.29 137.75L351.66 138.83M351.66 138.83L351.66 139.97M351.66 139.97L351.29 141.06M351.29 141.06L350.59 141.96M350.59 141.96L349.63 142.58M349.63 142.58L348.52 142.86M348.52 142.86L347.38 142.77M347.38 142.77L346.34 142.31M346.34 142.31L345.49 141.54M345.49 141.54L344.95 140.53M344.95 140.53L344.76 139.4"
fill="none" stroke="black" stroke-width="0.5"/>
<path d="M441.62 139.4L441.81 138.27M441.81 138.27L442.35 137.27M442.35 137.27L443.19 136.49M443.19 136.49L444.24 136.03M444.24 136.03L445.38 135.94M445.38 135.94L446.49 136.22M446.49 136.22L447.45 136.84M447.45 136.84L448.15 137.75M448.15 137.75L448.52 138.83M448.52 138.83L448.52 139.97M448.52 139.97L448.15 141.06M448.15 141.06L447.45 141.96M447.45 141.96L446.49 142.58M446.49 142.58L445.38 142.86M445.38 142.86L444.24 142.77M444.24 142.77L443.19 142.31M443.19 142.31L442.35 141.54M442.35 141.54L441.81 140.53M441.81 140.53L441.62 139.4"
fill="none" stroke="black" stroke-width="0.5"/>
<path d="M355.19 189.4L438.06 189.4"
fill="none" stroke="yellow" stroke-width="0.5"/>
<path d="M438.06 193.88L438.92 193.72M438.92 193.72L439.65 193.23M439.65 193.23L440.14 192.5M440.14 192.5L440.32 191.64M440.32 191.64L440.14 190.78M440.14 190.78L439.65 190.05M439.65 190.05L438.92 189.56M438.92 189.56L438.06 189.4"
fill="none" stroke="yellow" stroke-width="0.5"/>
<path d="M355.22 189.4L354.36 189.56M354.36 189.56L353.62 190.05M353.62 190.05L353.13 190.78M353.13 190.78L352.96 191.64M352.96 191.64L353.13 192.5M353.13 192.5L353.62 193.23M353.62 193.23L354.36 193.72M354.36 193.72L355.22 193.88"
fill="none" stroke="yellow" stroke-width="0.5"/>
<path d="M438.06 193.88L355.19 193.88"
fill="none" stroke="yellow" stroke-width="0.5"/>
<path d="M454.51 254.87L338.87 254.87"
fill="none" stroke="yellow" stroke-width="0.5"/>
<path d="M338.91 250.38L338.04 250.55M338.04 250.55L337.31 251.03M337.31 251.03L336.82 251.76M336.82 251.76L336.65 252.63M336.65 252.63L336.82 253.49M336.82 253.49L337.31 254.22M337.31 254.22L338.04 254.7M338.04 254.7L338.91 254.87"
fill="none" stroke="yellow" stroke-width="0.5"/>
<path d="M454.48 254.87L455.34 254.71M455.34 254.71L456.08 254.22M456.08 254.22L456.58 253.49M456.58 253.49L456.75 252.63M456.75 252.63L456.58 251.76M456.58 251.76L456.08 251.03M456.08 251.03L455.34 250.55M455.34 250.55L454.48 250.38"
fill="none" stroke="yellow" stroke-width="0.5"/>
<path d="M338.87 250.38L454.51 250.38"
fill="none" stroke="yellow" stroke-width="0.5"/>
<path d="M317.31 392.42L317.31 411.39"
fill="none" stroke="red" stroke-width="0.5"/>
<path d="M334.12 385.72L334.12 411.39"
fill="none" stroke="red" stroke-width="0.5"/>
<path d="M314.08 408.16L310.85 408.16"
fill="none" stroke="red" stroke-width="0.5"/>
<path d="M337.35 408.16L340.58 408.16"
fill="none" stroke="red" stroke-width="0.5"/>
<path d="M314.08 408.7L317.31 408.16 317.31 408.16 314.08 407.62 314.08 408.7Z"
fill-rule="evenodd" fill="red"/>
<path d="M337.35 407.62L334.12 408.16 334.12 408.16 337.35 408.7 337.35 407.62Z"
fill-rule="evenodd" fill="red"/>
<path d="M321.14 406.55L323.29 406.55M323.29 406.55L321.68 409.78M324.37 409.78L324.37 409.24M325.45 409.24L325.98 409.78M325.98 409.78L327.06 409.78M327.06 409.78L327.6 409.24M327.6 409.24L327.6 408.16M327.6 408.16L327.06 407.62M327.06 407.62L325.45 407.62M325.45 407.62L325.45 406.55M325.45 406.55L327.6 406.55M329.21 409.78L328.67 409.24M328.67 409.24L328.67 407.08M328.67 407.08L329.21 406.55M329.21 406.55L329.75 406.55M329.75 406.55L330.29 407.08M330.29 407.08L330.29 409.24M330.29 409.24L329.75 409.78M329.75 409.78L329.21 409.78"
fill="none" stroke="red" stroke-width="0.5"/>
<path d="M317.31 391.3L317.31 391.3"
fill="none" stroke="red" stroke-width="0.5"/>
<path d="M334.12 384.6L334.12 384.6"
fill="none" stroke="red" stroke-width="0.5"/>
<path d="M334.12 408.16L334.12 408.16"
fill="none" stroke="red" stroke-width="0.5"/>
<path d="M333 384.57L301.52 384.57"
fill="none" stroke="red" stroke-width="0.5"/>
<path d="M316.19 391.3L301.52 391.3"
fill="none" stroke="red" stroke-width="0.5"/>
<path d="M304.74 381.34L304.74 378.11"
fill="none" stroke="red" stroke-width="0.5"/>
<path d="M304.74 394.53L304.74 397.76"
fill="none" stroke="red" stroke-width="0.5"/>
<path d="M304.21 381.34L304.74 384.57 304.74 384.57 305.28 381.34 304.21 381.34Z"
fill-rule="evenodd" fill="red"/>
<path d="M305.28 394.53L304.74 391.3 304.74 391.3 304.21 394.53 305.28 394.53Z"
fill-rule="evenodd" fill="red"/>
<path d="M300.44 386.86L300.98 386.32M300.98 386.32L302.05 386.32M302.05 386.32L302.59 386.86M302.59 386.86L302.59 387.4M302.59 387.4L302.05 387.93M302.05 387.93L301.52 387.93M302.05 387.93L302.59 388.47M302.59 388.47L302.59 389.01M302.59 389.01L302.05 389.55M302.05 389.55L300.98 389.55M300.98 389.55L300.44 389.01M303.67 389.55L303.67 389.01M305.28 389.55L304.74 389.01M304.74 389.01L304.74 386.86M304.74 386.86L305.28 386.32M305.28 386.32L305.82 386.32M305.82 386.32L306.36 386.86M306.36 386.86L306.36 389.01M306.36 389.01L305.82 389.55M305.82 389.55L305.28 389.55M307.97 389.55L307.43 389.01M307.43 389.01L307.43 386.86M307.43 386.86L307.97 386.32M307.97 386.32L308.51 386.32M308.51 386.32L309.05 386.86M309.05 386.86L309.05 389.01M309.05 389.01L308.51 389.55M308.51 389.55L307.97 389.55"
fill="none" stroke="red" stroke-width="0.5"/>
<path d="M334.12 384.57L334.12 384.57"
fill="none" stroke="red" stroke-width="0.5"/>
<path d="M317.31 391.3L317.31 391.3"
fill="none" stroke="red" stroke-width="0.5"/>
<path d="M304.74 391.3L304.74 391.3"
fill="none" stroke="red" stroke-width="0.5"/>
<path d="M454.96 352.29L462.34 352.29"
fill="none" stroke="red" stroke-width="0.5"/>
<path d="M454.96 352.29L447.58 352.29"
fill="none" stroke="red" stroke-width="0.5"/>
<path d="M454.96 352.29L454.96 344.91"
fill="none" stroke="red" stroke-width="0.5"/>
<path d="M454.96 352.29L454.96 359.66"
fill="none" stroke="red" stroke-width="0.5"/>
<path d="M334.12 384.57L337.91 384.57"
fill="none" stroke="red" stroke-width="0.5"/>
<path d="M334.12 384.57L330.33 384.57"
fill="none" stroke="red" stroke-width="0.5"/>
<path d="M334.12 384.57L334.12 380.78"
fill="none" stroke="red" stroke-width="0.5"/>
<path d="M334.12 384.57L334.12 388.36"
fill="none" stroke="red" stroke-width="0.5"/>
<path d="M453.84 352.29L301.52 352.29"
fill="none" stroke="red" stroke-width="0.5"/>
<path d="M333 384.57L301.52 384.57"
fill="none" stroke="red" stroke-width="0.5"/>
<path d="M304.74 355.51L304.74 365.2"
fill="none" stroke="red" stroke-width="0.5"/>
<path d="M304.74 381.34L304.74 371.66"
fill="none" stroke="red" stroke-width="0.5"/>
<path d="M305.28 355.51L304.74 352.29 304.74 352.29 304.21 355.51 305.28 355.51Z"
fill-rule="evenodd" fill="red"/>
<path d="M304.21 381.34L304.74 384.57 304.74 384.57 305.28 381.34 304.21 381.34Z"
fill-rule="evenodd" fill="red"/>
<path d="M299.09 367.35L299.63 366.81M299.63 366.81L299.63 370.04M299.09 370.04L300.17 370.04M303.4 368.97L301.25 368.97M301.25 368.97L302.86 366.81M302.86 366.81L302.86 370.04M304.47 370.04L304.47 369.5M307.7 368.97L305.55 368.97M305.55 368.97L307.17 366.81M307.17 366.81L307.17 370.04M309.32 370.04L308.78 369.5M308.78 369.5L308.78 367.35M308.78 367.35L309.32 366.81M309.32 366.81L309.86 366.81M309.86 366.81L310.39 367.35M310.39 367.35L310.39 369.5M310.39 369.5L309.86 370.04M309.86 370.04L309.32 370.04"
fill="none" stroke="red" stroke-width="0.5"/>
<path d="M454.96 352.29L454.96 352.29"
fill="none" stroke="red" stroke-width="0.5"/>
<path d="M334.12 384.57L334.12 384.57"
fill="none" stroke="red" stroke-width="0.5"/>
<path d="M304.74 384.57L304.74 384.57"
fill="none" stroke="red" stroke-width="0.5"/>
<path d="M454.96 319.55L462.34 319.55"
fill="none" stroke="red" stroke-width="0.5"/>
<path d="M454.96 319.55L447.58 319.55"
fill="none" stroke="red" stroke-width="0.5"/>
<path d="M454.96 319.55L454.96 312.18"
fill="none" stroke="red" stroke-width="0.5"/>
<path d="M454.96 319.55L454.96 326.93"
fill="none" stroke="red" stroke-width="0.5"/>
<path d="M453.84 319.55L301.52 319.55"
fill="none" stroke="red" stroke-width="0.5"/>
<path d="M453.68 352.29L301.52 352.29"
fill="none" stroke="red" stroke-width="0.5"/>
<path d="M304.74 322.78L304.74 332.69"
fill="none" stroke="red" stroke-width="0.5"/>
<path d="M304.74 349.06L304.74 339.15"
fill="none" stroke="red" stroke-width="0.5"/>
<path d="M305.28 322.78L304.74 319.55 304.74 319.55 304.21 322.78 305.28 322.78Z"
fill-rule="evenodd" fill="red"/>
<path d="M304.21 349.06L304.74 352.29 304.74 352.29 305.28 349.06 304.21 349.06Z"
fill-rule="evenodd" fill="red"/>
<path d="M299.09 334.84L299.63 334.3M299.63 334.3L299.63 337.53M299.09 337.53L300.17 337.53M303.4 336.46L301.25 336.46M301.25 336.46L302.86 334.3M302.86 334.3L302.86 337.53M304.47 337.53L304.47 336.99M305.55 335.92L307.17 335.92M307.17 335.92L307.7 336.46M307.7 336.46L307.7 336.99M307.7 336.99L307.17 337.53M307.17 337.53L306.09 337.53M306.09 337.53L305.55 336.99M305.55 336.99L305.55 335.38M305.55 335.38L306.63 334.3M306.63 334.3L307.17 334.3M309.32 337.53L308.78 336.99M308.78 336.99L308.78 334.84M308.78 334.84L309.32 334.3M309.32 334.3L309.86 334.3M309.86 334.3L310.39 334.84M310.39 334.84L310.39 336.99M310.39 336.99L309.86 337.53M309.86 337.53L309.32 337.53"
fill="none" stroke="red" stroke-width="0.5"/>
<path d="M454.96 319.55L454.96 319.55"
fill="none" stroke="red" stroke-width="0.5"/>
<path d="M454.8 352.29L454.8 352.29"
fill="none" stroke="red" stroke-width="0.5"/>
<path d="M304.74 352.29L304.74 352.29"
fill="none" stroke="red" stroke-width="0.5"/>
<path d="M454.96 284.01L462.45 284.01"
fill="none" stroke="red" stroke-width="0.5"/>
<path d="M454.96 284.01L447.47 284.01"
fill="none" stroke="red" stroke-width="0.5"/>
<path d="M454.96 284.01L454.96 276.53"
fill="none" stroke="red" stroke-width="0.5"/>
<path d="M454.96 284.01L454.96 291.5"
fill="none" stroke="red" stroke-width="0.5"/>
<path d="M453.97 319.55L301.51 319.55"
fill="none" stroke="red" stroke-width="0.5"/>
<path d="M453.97 284.01L301.51 284.01"
fill="none" stroke="red" stroke-width="0.5"/>
<path d="M304.74 316.32L304.74 305.01"
fill="none" stroke="red" stroke-width="0.5"/>
<path d="M304.74 287.24L304.74 298.55"
fill="none" stroke="red" stroke-width="0.5"/>
<path d="M304.2 316.32L304.74 319.55 304.74 319.55 305.28 316.32 304.2 316.32Z"
fill-rule="evenodd" fill="red"/>
<path d="M305.28 287.24L304.74 284.01 304.74 284.01 304.2 287.24 305.28 287.24Z"
fill-rule="evenodd" fill="red"/>
<path d="M298.82 300.71L299.36 300.17M299.36 300.17L299.36 303.4M298.82 303.4L299.9 303.4M300.97 302.86L301.51 303.4M301.51 303.4L302.59 303.4M302.59 303.4L303.13 302.86M303.13 302.86L303.13 301.78M303.13 301.78L302.59 301.25M302.59 301.25L300.97 301.25M300.97 301.25L300.97 300.17M300.97 300.17L303.13 300.17M304.2 303.4L304.2 302.86M305.82 303.4L305.28 302.86M305.28 302.86L305.28 302.32M305.28 302.32L305.82 301.78M305.82 301.78L306.89 301.78M306.89 301.78L307.43 301.25M307.43 301.25L307.43 300.71M307.43 300.71L306.89 300.17M306.89 300.17L305.82 300.17M305.82 300.17L305.28 300.71M305.28 300.71L305.28 301.25M305.28 301.25L305.82 301.78M306.89 301.78L307.43 302.32M307.43 302.32L307.43 302.86M307.43 302.86L306.89 303.4M306.89 303.4L305.82 303.4M308.51 302.86L309.04 303.4M309.04 303.4L310.12 303.4M310.12 303.4L310.66 302.86M310.66 302.86L310.66 301.78M310.66 301.78L310.12 301.25M310.12 301.25L308.51 301.25M308.51 301.25L308.51 300.17M308.51 300.17L310.66 300.17"
fill="none" stroke="red" stroke-width="0.5"/>
<path d="M455.09 319.55L455.09 319.55"
fill="none" stroke="red" stroke-width="0.5"/>
<path d="M455.09 284.01L455.09 284.01"
fill="none" stroke="red" stroke-width="0.5"/>
<path d="M304.74 284.01L304.74 284.01"
fill="none" stroke="red" stroke-width="0.5"/>
<path d="M450.03 239.17L458.64 239.17"
fill="none" stroke="red" stroke-width="0.5"/>
<path d="M450.03 239.17L441.42 239.17"
fill="none" stroke="red" stroke-width="0.5"/>
<path d="M450.03 239.17L450.03 230.56"
fill="none" stroke="red" stroke-width="0.5"/>
<path d="M450.03 239.17L450.03 247.78"
fill="none" stroke="red" stroke-width="0.5"/>
<path d="M448.86 239.17L301.51 239.17"
fill="none" stroke="red" stroke-width="0.5"/>
<path d="M453.84 284.01L301.51 284.01"
fill="none" stroke="red" stroke-width="0.5"/>
<path d="M304.74 242.4L304.74 258.37"
fill="none" stroke="red" stroke-width="0.5"/>
<path d="M304.74 280.79L304.74 264.82"
fill="none" stroke="red" stroke-width="0.5"/>
<path d="M305.28 242.4L304.74 239.17 304.74 239.17 304.2 242.4 305.28 242.4Z"
fill-rule="evenodd" fill="red"/>
<path d="M304.2 280.79L304.74 284.01 304.74 284.01 305.28 280.79 304.2 280.79Z"
fill-rule="evenodd" fill="red"/>
<path d="M299.09 260.52L299.63 259.98M299.63 259.98L300.7 259.98M300.7 259.98L301.24 260.52M301.24 260.52L301.24 261.06M301.24 261.06L300.7 261.59M300.7 261.59L299.63 261.59M299.63 261.59L299.09 262.13M299.09 262.13L299.09 263.21M299.09 263.21L301.24 263.21M302.86 263.21L302.32 262.67M302.32 262.67L302.32 260.52M302.32 260.52L302.86 259.98M302.86 259.98L303.39 259.98M303.39 259.98L303.93 260.52M303.93 260.52L303.93 262.67M303.93 262.67L303.39 263.21M303.39 263.21L302.86 263.21M305.01 263.21L305.01 262.67M306.62 263.21L306.08 262.67M306.08 262.67L306.08 260.52M306.08 260.52L306.62 259.98M306.62 259.98L307.16 259.98M307.16 259.98L307.7 260.52M307.7 260.52L307.7 262.67M307.7 262.67L307.16 263.21M307.16 263.21L306.62 263.21M309.31 263.21L308.78 262.67M308.78 262.67L308.78 260.52M308.78 260.52L309.31 259.98M309.31 259.98L309.85 259.98M309.85 259.98L310.39 260.52M310.39 260.52L310.39 262.67M310.39 262.67L309.85 263.21M309.85 263.21L309.31 263.21"
fill="none" stroke="red" stroke-width="0.5"/>
<path d="M449.98 239.17L449.98 239.17"
fill="none" stroke="red" stroke-width="0.5"/>
<path d="M454.96 284.01L454.96 284.01"
fill="none" stroke="red" stroke-width="0.5"/>
<path d="M304.74 284.01L304.74 284.01"
fill="none" stroke="red" stroke-width="0.5"/>
<path d="M433.66 178.19L442.27 178.19"
fill="none" stroke="red" stroke-width="0.5"/>
<path d="M433.66 178.19L425.05 178.19"
fill="none" stroke="red" stroke-width="0.5"/>
<path d="M433.66 178.19L433.66 169.58"
fill="none" stroke="red" stroke-width="0.5"/>
<path d="M433.66 178.19L433.66 186.8"
fill="none" stroke="red" stroke-width="0.5"/>
<path d="M449.36 239.17L301.51 239.17"
fill="none" stroke="red" stroke-width="0.5"/>
<path d="M432.54 178.19L301.51 178.19"
fill="none" stroke="red" stroke-width="0.5"/>
<path d="M304.74 235.94L304.74 211.91"
fill="none" stroke="red" stroke-width="0.5"/>
<path d="M304.74 181.42L304.74 205.45"
fill="none" stroke="red" stroke-width="0.5"/>
<path d="M304.2 235.94L304.74 239.17 304.74 239.17 305.28 235.94 304.2 235.94Z"
fill-rule="evenodd" fill="red"/>
<path d="M305.28 181.42L304.74 178.19 304.74 178.19 304.2 181.42 305.28 181.42Z"
fill-rule="evenodd" fill="red"/>
<path d="M298.55 207.61L299.09 207.07M299.09 207.07L300.17 207.07M300.17 207.07L300.7 207.61M300.7 207.61L300.7 208.14M300.7 208.14L300.17 208.68M300.17 208.68L299.09 208.68M299.09 208.68L298.55 209.22M298.55 209.22L298.55 210.3M298.55 210.3L300.7 210.3M301.78 207.07L303.93 207.07M303.93 207.07L302.32 210.3M305.01 210.3L305.01 209.76M306.08 207.61L306.62 207.07M306.62 207.07L307.7 207.07M307.7 207.07L308.24 207.61M308.24 207.61L308.24 208.14M308.24 208.14L307.7 208.68M307.7 208.68L306.62 208.68M306.62 208.68L306.08 209.22M306.08 209.22L306.08 210.3M306.08 210.3L308.24 210.3M309.85 210.3L309.31 209.76M309.31 209.76L309.31 207.61M309.31 207.61L309.85 207.07M309.85 207.07L310.39 207.07M310.39 207.07L310.93 207.61M310.93 207.61L310.93 209.76M310.93 209.76L310.39 210.3M310.39 210.3L309.85 210.3"
fill="none" stroke="red" stroke-width="0.5"/>
<path d="M450.48 239.17L450.48 239.17"
fill="none" stroke="red" stroke-width="0.5"/>
<path d="M433.66 178.19L433.66 178.19"
fill="none" stroke="red" stroke-width="0.5"/>
<path d="M304.74 178.19L304.74 178.19"
fill="none" stroke="red" stroke-width="0.5"/>
<path d="M459.33 139.4L465.36 139.4"
fill="none" stroke="red" stroke-width="0.5"/>
<path d="M459.33 139.4L453.3 139.4"
fill="none" stroke="red" stroke-width="0.5"/>
<path d="M459.33 139.4L459.33 133.37"
fill="none" stroke="red" stroke-width="0.5"/>
<path d="M459.33 139.4L459.33 145.43"
fill="none" stroke="red" stroke-width="0.5"/>
<path d="M445.09 139.4L448.77 139.4"
fill="none" stroke="red" stroke-width="0.5"/>
<path d="M445.09 139.4L441.42 139.4"
fill="none" stroke="red" stroke-width="0.5"/>
<path d="M445.09 139.4L445.09 135.72"
fill="none" stroke="red" stroke-width="0.5"/>
<path d="M445.09 139.4L445.09 143.08"
fill="none" stroke="red" stroke-width="0.5"/>
<path d="M348.24 139.4L351.91 139.4"
fill="none" stroke="red" stroke-width="0.5"/>
<path d="M348.24 139.4L344.56 139.4"
fill="none" stroke="red" stroke-width="0.5"/>
<path d="M348.24 139.4L348.24 135.72"
fill="none" stroke="red" stroke-width="0.5"/>
<path d="M348.24 139.4L348.24 143.08"
fill="none" stroke="red" stroke-width="0.5"/>
<path d="M334 139.4L340.03 139.4"
fill="none" stroke="red" stroke-width="0.5"/>
<path d="M334 139.4L327.97 139.4"
fill="none" stroke="red" stroke-width="0.5"/>
<path d="M334 139.4L334 133.37"
fill="none" stroke="red" stroke-width="0.5"/>
<path d="M334 139.4L334 145.43"
fill="none" stroke="red" stroke-width="0.5"/>
<path d="M359.67 178.19L368.28 178.19"
fill="none" stroke="red" stroke-width="0.5"/>
<path d="M359.67 178.19L351.06 178.19"
fill="none" stroke="red" stroke-width="0.5"/>
<path d="M359.67 178.19L359.67 169.58"
fill="none" stroke="red" stroke-width="0.5"/>
<path d="M359.67 178.19L359.67 186.8"
fill="none" stroke="red" stroke-width="0.5"/>
<path d="M343.3 239.17L351.91 239.17"
fill="none" stroke="red" stroke-width="0.5"/>
<path d="M343.3 239.17L334.69 239.17"
fill="none" stroke="red" stroke-width="0.5"/>
<path d="M343.3 239.17L343.3 230.56"
fill="none" stroke="red" stroke-width="0.5"/>
<path d="M343.3 239.17L343.3 247.78"
fill="none" stroke="red" stroke-width="0.5"/>
<path d="M396.67 239.17L405.28 239.17"
fill="none" stroke="red" stroke-width="0.5"/>
<path d="M396.67 239.17L388.06 239.17"
fill="none" stroke="red" stroke-width="0.5"/>
<path d="M396.67 239.17L396.67 230.56"
fill="none" stroke="red" stroke-width="0.5"/>
<path d="M396.67 239.17L396.67 247.78"
fill="none" stroke="red" stroke-width="0.5"/>
<path d="M338.37 284.01L345.86 284.01"
fill="none" stroke="red" stroke-width="0.5"/>
<path d="M338.37 284.01L330.88 284.01"
fill="none" stroke="red" stroke-width="0.5"/>
<path d="M338.37 284.01L338.37 276.53"
fill="none" stroke="red" stroke-width="0.5"/>
<path d="M338.37 284.01L338.37 291.5"
fill="none" stroke="red" stroke-width="0.5"/>
<path d="M367.52 284.01L375.01 284.01"
fill="none" stroke="red" stroke-width="0.5"/>
<path d="M367.52 284.01L360.03 284.01"
fill="none" stroke="red" stroke-width="0.5"/>
<path d="M367.52 284.01L367.52 276.53"
fill="none" stroke="red" stroke-width="0.5"/>
<path d="M367.52 284.01L367.52 291.5"
fill="none" stroke="red" stroke-width="0.5"/>
<path d="M396.67 284.01L404.15 284.01"
fill="none" stroke="red" stroke-width="0.5"/>
<path d="M396.67 284.01L389.18 284.01"
fill="none" stroke="red" stroke-width="0.5"/>
<path d="M396.67 284.01L396.67 276.53"
fill="none" stroke="red" stroke-width="0.5"/>
<path d="M396.67 284.01L396.67 291.5"
fill="none" stroke="red" stroke-width="0.5"/>
<path d="M425.81 284.01L433.3 284.01"
fill="none" stroke="red" stroke-width="0.5"/>
<path d="M425.81 284.01L418.32 284.01"
fill="none" stroke="red" stroke-width="0.5"/>
<path d="M425.81 284.01L425.81 276.53"
fill="none" stroke="red" stroke-width="0.5"/>
<path d="M425.81 284.01L425.81 291.5"
fill="none" stroke="red" stroke-width="0.5"/>
<path d="M338.37 319.55L345.75 319.55"
fill="none" stroke="red" stroke-width="0.5"/>
<path d="M338.37 319.55L331 319.55"
fill="none" stroke="red" stroke-width="0.5"/>
<path d="M338.37 319.55L338.37 312.18"
fill="none" stroke="red" stroke-width="0.5"/>
<path d="M338.37 319.55L338.37 326.93"
fill="none" stroke="red" stroke-width="0.5"/>
<path d="M367.52 319.55L374.9 319.55"
fill="none" stroke="red" stroke-width="0.5"/>
<path d="M367.52 319.55L360.14 319.55"
fill="none" stroke="red" stroke-width="0.5"/>
<path d="M367.52 319.55L367.52 312.18"
fill="none" stroke="red" stroke-width="0.5"/>
<path d="M367.52 319.55L367.52 326.93"
fill="none" stroke="red" stroke-width="0.5"/>
<path d="M396.67 319.55L404.04 319.55"
fill="none" stroke="red" stroke-width="0.5"/>
<path d="M396.67 319.55L389.29 319.55"
fill="none" stroke="red" stroke-width="0.5"/>
<path d="M396.67 319.55L396.67 312.18"
fill="none" stroke="red" stroke-width="0.5"/>
<path d="M396.67 319.55L396.67 326.93"
fill="none" stroke="red" stroke-width="0.5"/>
<path d="M425.81 319.55L433.19 319.55"
fill="none" stroke="red" stroke-width="0.5"/>
<path d="M425.81 319.55L418.44 319.55"
fill="none" stroke="red" stroke-width="0.5"/>
<path d="M425.81 319.55L425.81 312.18"
fill="none" stroke="red" stroke-width="0.5"/>
<path d="M425.81 319.55L425.81 326.93"
fill="none" stroke="red" stroke-width="0.5"/>
<path d="M338.37 352.29L345.75 352.29"
fill="none" stroke="red" stroke-width="0.5"/>
<path d="M338.37 352.29L331 352.29"
fill="none" stroke="red" stroke-width="0.5"/>
<path d="M338.37 352.29L338.37 344.91"
fill="none" stroke="red" stroke-width="0.5"/>
<path d="M338.37 352.29L338.37 359.66"
fill="none" stroke="red" stroke-width="0.5"/>
<path d="M367.52 352.29L374.9 352.29"
fill="none" stroke="red" stroke-width="0.5"/>
<path d="M367.52 352.29L360.14 352.29"
fill="none" stroke="red" stroke-width="0.5"/>
<path d="M367.52 352.29L367.52 344.91"
fill="none" stroke="red" stroke-width="0.5"/>
<path d="M367.52 352.29L367.52 359.66"
fill="none" stroke="red" stroke-width="0.5"/>
<path d="M396.67 352.29L404.04 352.29"
fill="none" stroke="red" stroke-width="0.5"/>
<path d="M396.67 352.29L389.29 352.29"
fill="none" stroke="red" stroke-width="0.5"/>
<path d="M396.67 352.29L396.67 344.91"
fill="none" stroke="red" stroke-width="0.5"/>
<path d="M396.67 352.29L396.67 359.66"
fill="none" stroke="red" stroke-width="0.5"/>
<path d="M425.81 352.29L433.19 352.29"
fill="none" stroke="red" stroke-width="0.5"/>
<path d="M425.81 352.29L418.44 352.29"
fill="none" stroke="red" stroke-width="0.5"/>
<path d="M425.81 352.29L425.81 344.91"
fill="none" stroke="red" stroke-width="0.5"/>
<path d="M425.81 352.29L425.81 359.66"
fill="none" stroke="red" stroke-width="0.5"/>
<path d="M458.21 139.4L301.52 139.4"
fill="none" stroke="red" stroke-width="0.5"/>
<path d="M432.54 178.19L301.52 178.19"
fill="none" stroke="red" stroke-width="0.5"/>
<path d="M304.74 142.63L304.74 155.57"
fill="none" stroke="red" stroke-width="0.5"/>
<path d="M304.74 174.96L304.74 162.02"
fill="none" stroke="red" stroke-width="0.5"/>
<path d="M305.28 142.63L304.74 139.4 304.74 139.4 304.21 142.63 305.28 142.63Z"
fill-rule="evenodd" fill="red"/>
<path d="M304.21 174.96L304.74 178.19 304.74 178.19 305.28 174.96 304.21 174.96Z"
fill-rule="evenodd" fill="red"/>
<path d="M299.09 157.72L299.63 157.18M299.63 157.18L299.63 160.41M299.09 160.41L300.17 160.41M301.25 157.18L303.4 157.18M303.4 157.18L301.78 160.41M304.47 160.41L304.47 159.87M305.55 157.72L306.09 157.18M306.09 157.18L307.17 157.18M307.17 157.18L307.7 157.72M307.7 157.72L307.7 158.26M307.7 158.26L307.17 158.8M307.17 158.8L306.63 158.8M307.17 158.8L307.7 159.33M307.7 159.33L307.7 159.87M307.7 159.87L307.17 160.41M307.17 160.41L306.09 160.41M306.09 160.41L305.55 159.87M309.32 160.41L308.78 159.87M308.78 159.87L308.78 157.72M308.78 157.72L309.32 157.18M309.32 157.18L309.86 157.18M309.86 157.18L310.39 157.72M310.39 157.72L310.39 159.87M310.39 159.87L309.86 160.41M309.86 160.41L309.32 160.41"
fill="none" stroke="red" stroke-width="0.5"/>
<path d="M459.33 139.4L459.33 139.4"
fill="none" stroke="red" stroke-width="0.5"/>
<path d="M433.66 178.19L433.66 178.19"
fill="none" stroke="red" stroke-width="0.5"/>
<path d="M304.74 178.19L304.74 178.19"
fill="none" stroke="red" stroke-width="0.5"/>
<path d="M334.12 109.92L337.91 109.92"
fill="none" stroke="red" stroke-width="0.5"/>
<path d="M334.12 109.92L330.33 109.92"
fill="none" stroke="red" stroke-width="0.5"/>
<path d="M334.12 109.92L334.12 106.13"
fill="none" stroke="red" stroke-width="0.5"/>
<path d="M334.12 109.92L334.12 113.71"
fill="none" stroke="red" stroke-width="0.5"/>
<path d="M332.88 139.4L301.52 139.4"
fill="none" stroke="red" stroke-width="0.5"/>
<path d="M333 109.92L301.52 109.92"
fill="none" stroke="red" stroke-width="0.5"/>
<path d="M304.74 136.17L304.74 127.89"
fill="none" stroke="red" stroke-width="0.5"/>
<path d="M304.74 113.15L304.74 121.43"
fill="none" stroke="red" stroke-width="0.5"/>
<path d="M304.21 136.17L304.74 139.4 304.74 139.4 305.28 136.17 304.21 136.17Z"
fill-rule="evenodd" fill="red"/>
<path d="M305.28 113.15L304.74 109.92 304.74 109.92 304.21 113.15 305.28 113.15Z"
fill-rule="evenodd" fill="red"/>
<path d="M299.36 123.58L299.9 123.05M299.9 123.05L299.9 126.27M299.36 126.27L300.44 126.27M301.52 123.58L302.05 123.05M302.05 123.05L303.13 123.05M303.13 123.05L303.67 123.58M303.67 123.58L303.67 124.12M303.67 124.12L303.13 124.66M303.13 124.66L302.59 124.66M303.13 124.66L303.67 125.2M303.67 125.2L303.67 125.74M303.67 125.74L303.13 126.27M303.13 126.27L302.05 126.27M302.05 126.27L301.52 125.74M304.74 126.27L304.74 125.74M305.82 123.58L306.36 123.05M306.36 123.05L306.36 126.27M305.82 126.27L306.9 126.27M307.97 125.74L308.51 126.27M308.51 126.27L309.59 126.27M309.59 126.27L310.12 125.74M310.12 125.74L310.12 124.66M310.12 124.66L309.59 124.12M309.59 124.12L307.97 124.12M307.97 124.12L307.97 123.05M307.97 123.05L310.12 123.05"
fill="none" stroke="red" stroke-width="0.5"/>
<path d="M334 139.4L334 139.4"
fill="none" stroke="red" stroke-width="0.5"/>
<path d="M334.12 109.92L334.12 109.92"
fill="none" stroke="red" stroke-width="0.5"/>
<path d="M304.74 109.92L304.74 109.92"
fill="none" stroke="red" stroke-width="0.5"/>
<path d="M333 109.92L301.52 109.92"
fill="none" stroke="red" stroke-width="0.5"/>
<path d="M316.19 103.19L301.52 103.19"
fill="none" stroke="red" stroke-width="0.5"/>
<path d="M304.74 113.15L304.74 116.38"
fill="none" stroke="red" stroke-width="0.5"/>
<path d="M304.74 99.96L304.74 96.73"
fill="none" stroke="red" stroke-width="0.5"/>
<path d="M305.28 113.15L304.74 109.92 304.74 109.92 304.21 113.15 305.28 113.15Z"
fill-rule="evenodd" fill="red"/>
<path d="M304.21 99.96L304.74 103.19 304.74 103.19 305.28 99.96 304.21 99.96Z"
fill-rule="evenodd" fill="red"/>
<path d="M300.44 105.48L300.98 104.94M300.98 104.94L302.05 104.94M302.05 104.94L302.59 105.48M302.59 105.48L302.59 106.02M302.59 106.02L302.05 106.56M302.05 106.56L301.52 106.56M302.05 106.56L302.59 107.09M302.59 107.09L302.59 107.63M302.59 107.63L302.05 108.17M302.05 108.17L300.98 108.17M300.98 108.17L300.44 107.63M303.67 108.17L303.67 107.63M305.28 108.17L304.74 107.63M304.74 107.63L304.74 105.48M304.74 105.48L305.28 104.94M305.28 104.94L305.82 104.94M305.82 104.94L306.36 105.48M306.36 105.48L306.36 107.63M306.36 107.63L305.82 108.17M305.82 108.17L305.28 108.17M307.97 108.17L307.43 107.63M307.43 107.63L307.43 105.48M307.43 105.48L307.97 104.94M307.97 104.94L308.51 104.94M308.51 104.94L309.05 105.48M309.05 105.48L309.05 107.63M309.05 107.63L308.51 108.17M308.51 108.17L307.97 108.17"
fill="none" stroke="red" stroke-width="0.5"/>
<path d="M334.12 109.92L334.12 109.92"
fill="none" stroke="red" stroke-width="0.5"/>
<path d="M317.31 103.19L317.31 103.19"
fill="none" stroke="red" stroke-width="0.5"/>
<path d="M304.74 103.19L304.74 103.19"
fill="none" stroke="red" stroke-width="0.5"/>
<path d="M338.37 285.14L338.37 432.93"
fill="none" stroke="red" stroke-width="0.5"/>
<path d="M317.31 392.42L317.31 432.93"
fill="none" stroke="red" stroke-width="0.5"/>
<path d="M341.6 429.7L344.83 429.7"
fill="none" stroke="red" stroke-width="0.5"/>
<path d="M314.08 429.7L310.85 429.7"
fill="none" stroke="red" stroke-width="0.5"/>
<path d="M341.6 429.16L338.37 429.7 338.37 429.7 341.6 430.24 341.6 429.16Z"
fill-rule="evenodd" fill="red"/>
<path d="M314.08 430.24L317.31 429.7 317.31 429.7 314.08 429.16 314.08 430.24Z"
fill-rule="evenodd" fill="red"/>
<path d="M323.8 431.31L324.34 431.31M324.34 431.31L325.42 430.24M325.42 430.24L325.42 428.62M325.42 428.62L324.88 428.09M324.88 428.09L323.8 428.09M323.8 428.09L323.27 428.62M323.27 428.62L323.27 429.16M323.27 429.16L323.8 429.7M323.8 429.7L325.42 429.7M326.49 431.31L326.49 430.78M329.72 430.24L327.57 430.24M327.57 430.24L329.18 428.09M329.18 428.09L329.18 431.31M331.34 431.31L330.8 430.78M330.8 430.78L330.8 428.62M330.8 428.62L331.34 428.09M331.34 428.09L331.88 428.09M331.88 428.09L332.41 428.62M332.41 428.62L332.41 430.78M332.41 430.78L331.88 431.31M331.88 431.31L331.34 431.31"
fill="none" stroke="red" stroke-width="0.5"/>
<path d="M338.37 284.01L338.37 284.01"
fill="none" stroke="red" stroke-width="0.5"/>
<path d="M317.31 391.3L317.31 391.3"
fill="none" stroke="red" stroke-width="0.5"/>
<path d="M317.31 429.7L317.31 429.7"
fill="none" stroke="red" stroke-width="0.5"/>
<path d="M338.37 285.14L338.37 452.57"
fill="none" stroke="red" stroke-width="0.5"/>
<path d="M367.52 285.14L367.52 452.57"
fill="none" stroke="red" stroke-width="0.5"/>
<path d="M341.6 449.34L345.95 449.34"
fill="none" stroke="red" stroke-width="0.5"/>
<path d="M364.29 449.34L359.94 449.34"
fill="none" stroke="red" stroke-width="0.5"/>
<path d="M341.6 448.8L338.37 449.34 338.37 449.34 341.6 449.88 341.6 448.8Z"
fill-rule="evenodd" fill="red"/>
<path d="M364.29 449.88L367.52 449.34 367.52 449.34 364.29 448.8 364.29 449.88Z"
fill-rule="evenodd" fill="red"/>
<path d="M347.57 448.26L348.1 447.72M348.1 447.72L348.1 450.95M347.57 450.95L348.64 450.95M349.72 448.26L350.26 447.72M350.26 447.72L351.33 447.72M351.33 447.72L351.87 448.26M351.87 448.26L351.87 448.8M351.87 448.8L351.33 449.34M351.33 449.34L350.8 449.34M351.33 449.34L351.87 449.88M351.87 449.88L351.87 450.41M351.87 450.41L351.33 450.95M351.33 450.95L350.26 450.95M350.26 450.95L349.72 450.41M352.95 450.95L352.95 450.41M354.56 450.95L354.02 450.41M354.02 450.41L354.02 448.26M354.02 448.26L354.56 447.72M354.56 447.72L355.1 447.72M355.1 447.72L355.64 448.26M355.64 448.26L355.64 450.41M355.64 450.41L355.1 450.95M355.1 450.95L354.56 450.95M357.25 450.95L356.71 450.41M356.71 450.41L356.71 448.26M356.71 448.26L357.25 447.72M357.25 447.72L357.79 447.72M357.79 447.72L358.33 448.26M358.33 448.26L358.33 450.41M358.33 450.41L357.79 450.95M357.79 450.95L357.25 450.95"
fill="none" stroke="red" stroke-width="0.5"/>
<path d="M338.37 284.01L338.37 284.01"
fill="none" stroke="red" stroke-width="0.5"/>
<path d="M367.52 284.01L367.52 284.01"
fill="none" stroke="red" stroke-width="0.5"/>
<path d="M367.52 449.34L367.52 449.34"
fill="none" stroke="red" stroke-width="0.5"/>
<path d="M367.52 285.14L367.52 452.57"
fill="none" stroke="red" stroke-width="0.5"/>
<path d="M396.66 285.14L396.66 452.57"
fill="none" stroke="red" stroke-width="0.5"/>
<path d="M370.75 449.34L375.09 449.34"
fill="none" stroke="red" stroke-width="0.5"/>
<path d="M393.43 449.34L389.08 449.34"
fill="none" stroke="red" stroke-width="0.5"/>
<path d="M370.75 448.8L367.52 449.34 367.52 449.34 370.75 449.88 370.75 448.8Z"
fill-rule="evenodd" fill="red"/>
<path d="M393.43 449.88L396.66 449.34 396.66 449.34 393.43 448.8 393.43 449.88Z"
fill-rule="evenodd" fill="red"/>
<path d="M376.71 448.26L377.25 447.72M377.25 447.72L377.25 450.95M376.71 450.95L377.78 450.95M378.86 448.26L379.4 447.72M379.4 447.72L380.47 447.72M380.47 447.72L381.01 448.26M381.01 448.26L381.01 448.8M381.01 448.8L380.47 449.34M380.47 449.34L379.94 449.34M380.47 449.34L381.01 449.88M381.01 449.88L381.01 450.41M381.01 450.41L380.47 450.95M380.47 450.95L379.4 450.95M379.4 450.95L378.86 450.41M382.09 450.95L382.09 450.41M383.7 450.95L383.17 450.41M383.17 450.41L383.17 448.26M383.17 448.26L383.7 447.72M383.7 447.72L384.24 447.72M384.24 447.72L384.78 448.26M384.78 448.26L384.78 450.41M384.78 450.41L384.24 450.95M384.24 450.95L383.7 450.95M386.39 450.95L385.86 450.41M385.86 450.41L385.86 448.26M385.86 448.26L386.39 447.72M386.39 447.72L386.93 447.72M386.93 447.72L387.47 448.26M387.47 448.26L387.47 450.41M387.47 450.41L386.93 450.95M386.93 450.95L386.39 450.95"
fill="none" stroke="red" stroke-width="0.5"/>
<path d="M367.52 284.01L367.52 284.01"
fill="none" stroke="red" stroke-width="0.5"/>
<path d="M396.66 284.01L396.66 284.01"
fill="none" stroke="red" stroke-width="0.5"/>
<path d="M396.66 449.34L396.66 449.34"
fill="none" stroke="red" stroke-width="0.5"/>
<path d="M425.81 285.14L425.81 452.57"
fill="none" stroke="red" stroke-width="0.5"/>
<path d="M454.96 285.14L454.96 452.57"
fill="none" stroke="red" stroke-width="0.5"/>
<path d="M429.04 449.34L433.39 449.34"
fill="none" stroke="red" stroke-width="0.5"/>
<path d="M451.73 449.34L447.38 449.34"
fill="none" stroke="red" stroke-width="0.5"/>
<path d="M429.04 448.8L425.81 449.34 425.81 449.34 429.04 449.88 429.04 448.8Z"
fill-rule="evenodd" fill="red"/>
<path d="M451.73 449.88L454.96 449.34 454.96 449.34 451.73 448.8 451.73 449.88Z"
fill-rule="evenodd" fill="red"/>
<path d="M435 448.26L435.54 447.72M435.54 447.72L435.54 450.95M435 450.95L436.08 450.95M437.16 448.26L437.69 447.72M437.69 447.72L438.77 447.72M438.77 447.72L439.31 448.26M439.31 448.26L439.31 448.8M439.31 448.8L438.77 449.34M438.77 449.34L438.23 449.34M438.77 449.34L439.31 449.88M439.31 449.88L439.31 450.41M439.31 450.41L438.77 450.95M438.77 450.95L437.69 450.95M437.69 450.95L437.16 450.41M440.38 450.95L440.38 450.41M442 450.95L441.46 450.41M441.46 450.41L441.46 448.26M441.46 448.26L442 447.72M442 447.72L442.54 447.72M442.54 447.72L443.07 448.26M443.07 448.26L443.07 450.41M443.07 450.41L442.54 450.95M442.54 450.95L442 450.95M444.69 450.95L444.15 450.41M444.15 450.41L444.15 448.26M444.15 448.26L444.69 447.72M444.69 447.72L445.23 447.72M445.23 447.72L445.77 448.26M445.77 448.26L445.77 450.41M445.77 450.41L445.23 450.95M445.23 450.95L444.69 450.95"
fill="none" stroke="red" stroke-width="0.5"/>
<path d="M425.81 284.01L425.81 284.01"
fill="none" stroke="red" stroke-width="0.5"/>
<path d="M454.96 284.01L454.96 284.01"
fill="none" stroke="red" stroke-width="0.5"/>
<path d="M454.96 449.34L454.96 449.34"
fill="none" stroke="red" stroke-width="0.5"/>
<path d="M476.05 392.42L476.05 473.85"
fill="none" stroke="red" stroke-width="0.5"/>
<path d="M317.31 392.42L317.31 473.85"
fill="none" stroke="red" stroke-width="0.5"/>
<path d="M472.82 470.62L404.21 470.62"
fill="none" stroke="red" stroke-width="0.5"/>
<path d="M320.53 470.62L389.14 470.62"
fill="none" stroke="red" stroke-width="0.5"/>
<path d="M472.82 471.16L476.05 470.62 476.05 470.62 472.82 470.09 472.82 471.16Z"
fill-rule="evenodd" fill="red"/>
<path d="M320.53 470.09L317.31 470.62 317.31 470.62 320.53 471.16 320.53 470.09Z"
fill-rule="evenodd" fill="red"/>
<path d="M390.76 469.01L392.91 469.01M392.91 469.01L391.3 472.24M394.52 472.24L393.99 471.7M393.99 471.7L393.99 469.55M393.99 469.55L394.52 469.01M394.52 469.01L395.06 469.01M395.06 469.01L395.6 469.55M395.6 469.55L395.6 471.7M395.6 471.7L395.06 472.24M395.06 472.24L394.52 472.24M396.68 472.24L396.68 471.7M398.29 472.24L397.75 471.7M397.75 471.7L397.75 471.16M397.75 471.16L398.29 470.62M398.29 470.62L399.37 470.62M399.37 470.62L399.9 470.09M399.9 470.09L399.9 469.55M399.9 469.55L399.37 469.01M399.37 469.01L398.29 469.01M398.29 469.01L397.75 469.55M397.75 469.55L397.75 470.09M397.75 470.09L398.29 470.62M399.37 470.62L399.9 471.16M399.9 471.16L399.9 471.7M399.9 471.7L399.37 472.24M399.37 472.24L398.29 472.24M401.52 472.24L400.98 471.7M400.98 471.7L400.98 469.55M400.98 469.55L401.52 469.01M401.52 469.01L402.06 469.01M402.06 469.01L402.6 469.55M402.6 469.55L402.6 471.7M402.6 471.7L402.06 472.24M402.06 472.24L401.52 472.24"
fill="none" stroke="red" stroke-width="0.5"/>
<path d="M476.05 391.3L476.05 391.3"
fill="none" stroke="red" stroke-width="0.5"/>
<path d="M317.31 391.3L317.31 391.3"
fill="none" stroke="red" stroke-width="0.5"/>
<path d="M317.31 470.62L317.31 470.62"
fill="none" stroke="red" stroke-width="0.5"/>
<path d="M476.05 392.42L476.05 432.93"
fill="none" stroke="red" stroke-width="0.5"/>
<path d="M454.97 392.42L454.97 432.93"
fill="none" stroke="red" stroke-width="0.5"/>
<path d="M479.27 429.7L482.5 429.7"
fill="none" stroke="red" stroke-width="0.5"/>
<path d="M451.74 429.7L448.51 429.7"
fill="none" stroke="red" stroke-width="0.5"/>
<path d="M479.27 429.16L476.05 429.7 476.05 429.7 479.27 430.24 479.27 429.16Z"
fill-rule="evenodd" fill="red"/>
<path d="M451.74 430.24L454.97 429.7 454.97 429.7 451.74 429.16 451.74 430.24Z"
fill-rule="evenodd" fill="red"/>
<path d="M461.47 431.31L462.01 431.31M462.01 431.31L463.09 430.24M463.09 430.24L463.09 428.62M463.09 428.62L462.55 428.09M462.55 428.09L461.47 428.09M461.47 428.09L460.93 428.62M460.93 428.62L460.93 429.16M460.93 429.16L461.47 429.7M461.47 429.7L463.09 429.7M464.16 431.31L464.16 430.78M467.39 430.24L465.24 430.24M465.24 430.24L466.85 428.09M466.85 428.09L466.85 431.31M469.01 431.31L468.47 430.78M468.47 430.78L468.47 428.62M468.47 428.62L469.01 428.09M469.01 428.09L469.54 428.09M469.54 428.09L470.08 428.62M470.08 428.62L470.08 430.78M470.08 430.78L469.54 431.31M469.54 431.31L469.01 431.31"
fill="none" stroke="red" stroke-width="0.5"/>
<path d="M476.05 391.3L476.05 391.3"
fill="none" stroke="red" stroke-width="0.5"/>
<path d="M454.97 391.3L454.97 391.3"
fill="none" stroke="red" stroke-width="0.5"/>
<path d="M454.97 429.7L454.97 429.7"
fill="none" stroke="red" stroke-width="0.5"/>
<path d="M476.05 392.42L476.05 411.39"
fill="none" stroke="red" stroke-width="0.5"/>
<path d="M459.41 385.69L459.41 411.39"
fill="none" stroke="red" stroke-width="0.5"/>
<path d="M479.27 408.16L482.5 408.16"
fill="none" stroke="red" stroke-width="0.5"/>
<path d="M456.18 408.16L452.95 408.16"
fill="none" stroke="red" stroke-width="0.5"/>
<path d="M479.27 407.62L476.05 408.16 476.05 408.16 479.27 408.7 479.27 407.62Z"
fill-rule="evenodd" fill="red"/>
<path d="M456.18 408.7L459.41 408.16 459.41 408.16 456.18 407.62 456.18 408.7Z"
fill-rule="evenodd" fill="red"/>
<path d="M462.89 406.55L465.04 406.55M465.04 406.55L463.42 409.78M466.11 409.78L466.11 409.24M469.34 408.7L467.19 408.7M467.19 408.7L468.8 406.55M468.8 406.55L468.8 409.78M470.42 407.08L470.96 406.55M470.96 406.55L472.03 406.55M472.03 406.55L472.57 407.08M472.57 407.08L472.57 407.62M472.57 407.62L472.03 408.16M472.03 408.16L470.96 408.16M470.96 408.16L470.42 408.7M470.42 408.7L470.42 409.78M470.42 409.78L472.57 409.78"
fill="none" stroke="red" stroke-width="0.5"/>
<path d="M476.05 391.3L476.05 391.3"
fill="none" stroke="red" stroke-width="0.5"/>
<path d="M459.41 384.57L459.41 384.57"
fill="none" stroke="red" stroke-width="0.5"/>
<path d="M459.41 408.16L459.41 408.16"
fill="none" stroke="red" stroke-width="0.5"/>
<path d="M396.67 240.29L396.67 452.57"
fill="none" stroke="red" stroke-width="0.5"/>
<path d="M425.81 285.14L425.81 452.57"
fill="none" stroke="red" stroke-width="0.5"/>
<path d="M399.89 449.34L404.24 449.34"
fill="none" stroke="red" stroke-width="0.5"/>
<path d="M422.58 449.34L418.23 449.34"
fill="none" stroke="red" stroke-width="0.5"/>
<path d="M399.89 448.8L396.67 449.34 396.67 449.34 399.89 449.88 399.89 448.8Z"
fill-rule="evenodd" fill="red"/>
<path d="M422.58 449.88L425.81 449.34 425.81 449.34 422.58 448.8 422.58 449.88Z"
fill-rule="evenodd" fill="red"/>
<path d="M405.86 448.26L406.4 447.72M406.4 447.72L406.4 450.95M405.86 450.95L406.93 450.95M408.01 448.26L408.55 447.72M408.55 447.72L409.62 447.72M409.62 447.72L410.16 448.26M410.16 448.26L410.16 448.8M410.16 448.8L409.62 449.34M409.62 449.34L409.09 449.34M409.62 449.34L410.16 449.88M410.16 449.88L410.16 450.41M410.16 450.41L409.62 450.95M409.62 450.95L408.55 450.95M408.55 450.95L408.01 450.41M411.24 450.95L411.24 450.41M412.85 450.95L412.32 450.41M412.32 450.41L412.32 448.26M412.32 448.26L412.85 447.72M412.85 447.72L413.39 447.72M413.39 447.72L413.93 448.26M413.93 448.26L413.93 450.41M413.93 450.41L413.39 450.95M413.39 450.95L412.85 450.95M415.54 450.95L415.01 450.41M415.01 450.41L415.01 448.26M415.01 448.26L415.54 447.72M415.54 447.72L416.08 447.72M416.08 447.72L416.62 448.26M416.62 448.26L416.62 450.41M416.62 450.41L416.08 450.95M416.08 450.95L415.54 450.95"
fill="none" stroke="red" stroke-width="0.5"/>
<path d="M396.67 239.17L396.67 239.17"
fill="none" stroke="red" stroke-width="0.5"/>
<path d="M425.81 284.01L425.81 284.01"
fill="none" stroke="red" stroke-width="0.5"/>
<path d="M425.81 449.34L425.81 449.34"
fill="none" stroke="red" stroke-width="0.5"/>
<path d="M343.3 240.29L343.3 420.99"
fill="none" stroke="red" stroke-width="0.5"/>
<path d="M367.52 285.14L367.52 420.99"
fill="none" stroke="red" stroke-width="0.5"/>
<path d="M346.53 417.76L348.42 417.76"
fill="none" stroke="red" stroke-width="0.5"/>
<path d="M364.29 417.76L362.41 417.76"
fill="none" stroke="red" stroke-width="0.5"/>
<path d="M346.53 417.22L343.3 417.76 343.3 417.76 346.53 418.3 346.53 417.22Z"
fill-rule="evenodd" fill="red"/>
<path d="M364.29 418.3L367.52 417.76 367.52 417.76 364.29 417.22 364.29 418.3Z"
fill-rule="evenodd" fill="red"/>
<path d="M350.03 416.68L350.57 416.15M350.57 416.15L350.57 419.37M350.03 419.37L351.11 419.37M352.72 419.37L352.18 418.84M352.18 418.84L352.18 416.68M352.18 416.68L352.72 416.15M352.72 416.15L353.26 416.15M353.26 416.15L353.8 416.68M353.8 416.68L353.8 418.84M353.8 418.84L353.26 419.37M353.26 419.37L352.72 419.37M354.87 419.37L354.87 418.84M356.49 419.37L355.95 418.84M355.95 418.84L355.95 418.3M355.95 418.3L356.49 417.76M356.49 417.76L357.56 417.76M357.56 417.76L358.1 417.22M358.1 417.22L358.1 416.68M358.1 416.68L357.56 416.15M357.56 416.15L356.49 416.15M356.49 416.15L355.95 416.68M355.95 416.68L355.95 417.22M355.95 417.22L356.49 417.76M357.56 417.76L358.1 418.3M358.1 418.3L358.1 418.84M358.1 418.84L357.56 419.37M357.56 419.37L356.49 419.37M359.72 419.37L359.18 418.84M359.18 418.84L359.18 416.68M359.18 416.68L359.72 416.15M359.72 416.15L360.25 416.15M360.25 416.15L360.79 416.68M360.79 416.68L360.79 418.84M360.79 418.84L360.25 419.37M360.25 419.37L359.72 419.37"
fill="none" stroke="red" stroke-width="0.5"/>
<path d="M343.3 239.17L343.3 239.17"
fill="none" stroke="red" stroke-width="0.5"/>
<path d="M367.52 284.01L367.52 284.01"
fill="none" stroke="red" stroke-width="0.5"/>
<path d="M367.52 417.76L367.52 417.76"
fill="none" stroke="red" stroke-width="0.5"/>
<path d="M450.03 240.29L450.03 420.99"
fill="none" stroke="red" stroke-width="0.5"/>
<path d="M425.81 285.14L425.81 420.99"
fill="none" stroke="red" stroke-width="0.5"/>
<path d="M446.8 417.76L444.91 417.76"
fill="none" stroke="red" stroke-width="0.5"/>
<path d="M429.04 417.76L430.92 417.76"
fill="none" stroke="red" stroke-width="0.5"/>
<path d="M446.8 418.3L450.03 417.76 450.03 417.76 446.8 417.22 446.8 418.3Z"
fill-rule="evenodd" fill="red"/>
<path d="M429.04 417.22L425.81 417.76 425.81 417.76 429.04 418.3 429.04 417.22Z"
fill-rule="evenodd" fill="red"/>
<path d="M432.54 416.68L433.08 416.15M433.08 416.15L433.08 419.37M432.54 419.37L433.61 419.37M435.23 419.37L434.69 418.84M434.69 418.84L434.69 416.68M434.69 416.68L435.23 416.15M435.23 416.15L435.77 416.15M435.77 416.15L436.31 416.68M436.31 416.68L436.31 418.84M436.31 418.84L435.77 419.37M435.77 419.37L435.23 419.37M437.38 419.37L437.38 418.84M439 419.37L438.46 418.84M438.46 418.84L438.46 418.3M438.46 418.3L439 417.76M439 417.76L440.07 417.76M440.07 417.76L440.61 417.22M440.61 417.22L440.61 416.68M440.61 416.68L440.07 416.15M440.07 416.15L439 416.15M439 416.15L438.46 416.68M438.46 416.68L438.46 417.22M438.46 417.22L439 417.76M440.07 417.76L440.61 418.3M440.61 418.3L440.61 418.84M440.61 418.84L440.07 419.37M440.07 419.37L439 419.37M442.22 419.37L441.69 418.84M441.69 418.84L441.69 416.68M441.69 416.68L442.22 416.15M442.22 416.15L442.76 416.15M442.76 416.15L443.3 416.68M443.3 416.68L443.3 418.84M443.3 418.84L442.76 419.37M442.76 419.37L442.22 419.37"
fill="none" stroke="red" stroke-width="0.5"/>
<path d="M450.03 239.17L450.03 239.17"
fill="none" stroke="red" stroke-width="0.5"/>
<path d="M425.81 284.01L425.81 284.01"
fill="none" stroke="red" stroke-width="0.5"/>
<path d="M425.81 417.76L425.81 417.76"
fill="none" stroke="red" stroke-width="0.5"/>
<path d="M348.24 138.28L348.24 81.26"
fill="none" stroke="red" stroke-width="0.5"/>
<path d="M317.31 102.07L317.31 81.26"
fill="none" stroke="red" stroke-width="0.5"/>
<path d="M345.01 84.49L340.04 84.49"
fill="none" stroke="red" stroke-width="0.5"/>
<path d="M320.54 84.49L325.51 84.49"
fill="none" stroke="red" stroke-width="0.5"/>
<path d="M345.01 85.03L348.24 84.49 348.24 84.49 345.01 83.95 345.01 85.03Z"
fill-rule="evenodd" fill="red"/>
<path d="M320.54 83.95L317.31 84.49 317.31 84.49 320.54 85.03 320.54 83.95Z"
fill-rule="evenodd" fill="red"/>
<path d="M327.12 83.41L327.66 82.87M327.66 82.87L327.66 86.1M327.12 86.1L328.2 86.1M329.27 83.41L329.81 82.87M329.81 82.87L330.89 82.87M330.89 82.87L331.43 83.41M331.43 83.41L331.43 83.95M331.43 83.95L330.89 84.49M330.89 84.49L330.35 84.49M330.89 84.49L331.43 85.03M331.43 85.03L331.43 85.57M331.43 85.57L330.89 86.1M330.89 86.1L329.81 86.1M329.81 86.1L329.27 85.57M332.5 86.1L332.5 85.57M334.12 86.1L333.58 85.57M333.58 85.57L333.58 85.03M333.58 85.03L334.12 84.49M334.12 84.49L335.19 84.49M335.19 84.49L335.73 83.95M335.73 83.95L335.73 83.41M335.73 83.41L335.19 82.87M335.19 82.87L334.12 82.87M334.12 82.87L333.58 83.41M333.58 83.41L333.58 83.95M333.58 83.95L334.12 84.49M335.19 84.49L335.73 85.03M335.73 85.03L335.73 85.57M335.73 85.57L335.19 86.1M335.19 86.1L334.12 86.1M337.35 86.1L336.81 85.57M336.81 85.57L336.81 83.41M336.81 83.41L337.35 82.87M337.35 82.87L337.88 82.87M337.88 82.87L338.42 83.41M338.42 83.41L338.42 85.57M338.42 85.57L337.88 86.1M337.88 86.1L337.35 86.1"
fill="none" stroke="red" stroke-width="0.5"/>
<path d="M348.24 139.4L348.24 139.4"
fill="none" stroke="red" stroke-width="0.5"/>
<path d="M317.31 103.19L317.31 103.19"
fill="none" stroke="red" stroke-width="0.5"/>
<path d="M317.31 84.49L317.31 84.49"
fill="none" stroke="red" stroke-width="0.5"/>
<path d="M359.67 177.07L359.67 90.41"
fill="none" stroke="red" stroke-width="0.5"/>
<path d="M348.24 138.28L348.24 90.41"
fill="none" stroke="red" stroke-width="0.5"/>
<path d="M362.9 93.64L366.13 93.64"
fill="none" stroke="red" stroke-width="0.5"/>
<path d="M345.01 93.64L341.78 93.64"
fill="none" stroke="red" stroke-width="0.5"/>
<path d="M362.9 93.1L359.67 93.64 359.67 93.64 362.9 94.17 362.9 93.1Z"
fill-rule="evenodd" fill="red"/>
<path d="M345.01 94.17L348.24 93.64 348.24 93.64 345.01 93.1 345.01 94.17Z"
fill-rule="evenodd" fill="red"/>
<path d="M349.92 94.71L350.46 95.25M350.46 95.25L351.53 95.25M351.53 95.25L352.07 94.71M352.07 94.71L352.07 93.64M352.07 93.64L351.53 93.1M351.53 93.1L349.92 93.1M349.92 93.1L349.92 92.02M349.92 92.02L352.07 92.02M353.15 95.25L353.15 94.71M354.22 92.56L354.76 92.02M354.76 92.02L354.76 95.25M354.22 95.25L355.3 95.25M356.91 95.25L356.38 94.71M356.38 94.71L356.38 92.56M356.38 92.56L356.91 92.02M356.91 92.02L357.45 92.02M357.45 92.02L357.99 92.56M357.99 92.56L357.99 94.71M357.99 94.71L357.45 95.25M357.45 95.25L356.91 95.25"
fill="none" stroke="red" stroke-width="0.5"/>
<path d="M359.67 178.19L359.67 178.19"
fill="none" stroke="red" stroke-width="0.5"/>
<path d="M348.24 139.4L348.24 139.4"
fill="none" stroke="red" stroke-width="0.5"/>
<path d="M348.24 93.64L348.24 93.64"
fill="none" stroke="red" stroke-width="0.5"/>
<path d="M445.09 138.28L445.09 81.26"
fill="none" stroke="red" stroke-width="0.5"/>
<path d="M476.03 102.07L476.03 81.26"
fill="none" stroke="red" stroke-width="0.5"/>
<path d="M448.32 84.49L453.3 84.49"
fill="none" stroke="red" stroke-width="0.5"/>
<path d="M472.81 84.49L467.83 84.49"
fill="none" stroke="red" stroke-width="0.5"/>
<path d="M448.32 83.95L445.09 84.49 445.09 84.49 448.32 85.03 448.32 83.95Z"
fill-rule="evenodd" fill="red"/>
<path d="M472.81 85.03L476.03 84.49 476.03 84.49 472.81 83.95 472.81 85.03Z"
fill-rule="evenodd" fill="red"/>
<path d="M454.91 83.41L455.45 82.87M455.45 82.87L455.45 86.1M454.91 86.1L455.99 86.1M457.07 83.41L457.61 82.87M457.61 82.87L458.68 82.87M458.68 82.87L459.22 83.41M459.22 83.41L459.22 83.95M459.22 83.95L458.68 84.49M458.68 84.49L458.14 84.49M458.68 84.49L459.22 85.03M459.22 85.03L459.22 85.57M459.22 85.57L458.68 86.1M458.68 86.1L457.61 86.1M457.61 86.1L457.07 85.57M460.3 86.1L460.3 85.57M461.91 86.1L461.37 85.57M461.37 85.57L461.37 85.03M461.37 85.03L461.91 84.49M461.91 84.49L462.99 84.49M462.99 84.49L463.52 83.95M463.52 83.95L463.52 83.41M463.52 83.41L462.99 82.87M462.99 82.87L461.91 82.87M461.91 82.87L461.37 83.41M461.37 83.41L461.37 83.95M461.37 83.95L461.91 84.49M462.99 84.49L463.52 85.03M463.52 85.03L463.52 85.57M463.52 85.57L462.99 86.1M462.99 86.1L461.91 86.1M465.14 86.1L464.6 85.57M464.6 85.57L464.6 83.41M464.6 83.41L465.14 82.87M465.14 82.87L465.68 82.87M465.68 82.87L466.21 83.41M466.21 83.41L466.21 85.57M466.21 85.57L465.68 86.1M465.68 86.1L465.14 86.1"
fill="none" stroke="red" stroke-width="0.5"/>
<path d="M445.09 139.4L445.09 139.4"
fill="none" stroke="red" stroke-width="0.5"/>
<path d="M476.03 103.19L476.03 103.19"
fill="none" stroke="red" stroke-width="0.5"/>
<path d="M476.03 84.49L476.03 84.49"
fill="none" stroke="red" stroke-width="0.5"/>
<path d="M348.24 138.28L348.24 81.26"
fill="none" stroke="red" stroke-width="0.5"/>
<path d="M445.09 138.28L445.09 81.26"
fill="none" stroke="red" stroke-width="0.5"/>
<path d="M351.47 84.49L388.86 84.49"
fill="none" stroke="red" stroke-width="0.5"/>
<path d="M441.86 84.49L404.46 84.49"
fill="none" stroke="red" stroke-width="0.5"/>
<path d="M351.47 83.95L348.24 84.49 348.24 84.49 351.47 85.03 351.47 83.95Z"
fill-rule="evenodd" fill="red"/>
<path d="M441.86 85.03L445.09 84.49 445.09 84.49 441.86 83.95 441.86 85.03Z"
fill-rule="evenodd" fill="red"/>
<path d="M392.63 85.03L390.47 85.03M390.47 85.03L392.09 82.87M392.09 82.87L392.09 86.1M393.7 83.41L394.24 82.87M394.24 82.87L395.32 82.87M395.32 82.87L395.85 83.41M395.85 83.41L395.85 83.95M395.85 83.95L395.32 84.49M395.32 84.49L394.78 84.49M395.32 84.49L395.85 85.03M395.85 85.03L395.85 85.57M395.85 85.57L395.32 86.1M395.32 86.1L394.24 86.1M394.24 86.1L393.7 85.57M396.93 86.1L396.93 85.57M398.01 83.41L398.55 82.87M398.55 82.87L399.62 82.87M399.62 82.87L400.16 83.41M400.16 83.41L400.16 83.95M400.16 83.95L399.62 84.49M399.62 84.49L398.55 84.49M398.55 84.49L398.01 85.03M398.01 85.03L398.01 86.1M398.01 86.1L400.16 86.1M401.77 86.1L401.24 85.57M401.24 85.57L401.24 83.41M401.24 83.41L401.77 82.87M401.77 82.87L402.31 82.87M402.31 82.87L402.85 83.41M402.85 83.41L402.85 85.57M402.85 85.57L402.31 86.1M402.31 86.1L401.77 86.1"
fill="none" stroke="red" stroke-width="0.5"/>
<path d="M348.24 139.4L348.24 139.4"
fill="none" stroke="red" stroke-width="0.5"/>
<path d="M445.09 139.4L445.09 139.4"
fill="none" stroke="red" stroke-width="0.5"/>
<path d="M445.09 84.49L445.09 84.49"
fill="none" stroke="red" stroke-width="0.5"/>
<path d="M433.66 177.07L433.66 90.41"
fill="none" stroke="red" stroke-width="0.5"/>
<path d="M445.09 138.28L445.09 90.41"
fill="none" stroke="red" stroke-width="0.5"/>
<path d="M430.43 93.64L427.2 93.64"
fill="none" stroke="red" stroke-width="0.5"/>
<path d="M448.32 93.64L451.55 93.64"
fill="none" stroke="red" stroke-width="0.5"/>
<path d="M430.43 94.17L433.66 93.64 433.66 93.64 430.43 93.1 430.43 94.17Z"
fill-rule="evenodd" fill="red"/>
<path d="M448.32 93.1L445.09 93.64 445.09 93.64 448.32 94.17 448.32 93.1Z"
fill-rule="evenodd" fill="red"/>
<path d="M435.34 94.71L435.88 95.25M435.88 95.25L436.96 95.25M436.96 95.25L437.49 94.71M437.49 94.71L437.49 93.64M437.49 93.64L436.96 93.1M436.96 93.1L435.34 93.1M435.34 93.1L435.34 92.02M435.34 92.02L437.49 92.02M438.57 95.25L438.57 94.71M439.65 92.56L440.18 92.02M440.18 92.02L440.18 95.25M439.65 95.25L440.72 95.25M442.34 95.25L441.8 94.71M441.8 94.71L441.8 92.56M441.8 92.56L442.34 92.02M442.34 92.02L442.87 92.02M442.87 92.02L443.41 92.56M443.41 92.56L443.41 94.71M443.41 94.71L442.87 95.25M442.87 95.25L442.34 95.25"
fill="none" stroke="red" stroke-width="0.5"/>
<path d="M433.66 178.19L433.66 178.19"
fill="none" stroke="red" stroke-width="0.5"/>
<path d="M445.09 139.4L445.09 139.4"
fill="none" stroke="red" stroke-width="0.5"/>
<path d="M445.09 93.64L445.09 93.64"
fill="none" stroke="red" stroke-width="0.5"/>
<path d="M445.09 140.52L445.09 153.89"
fill="none" stroke="red" stroke-width="0.5"/>
<path d="M459.33 140.52L459.33 153.89"
fill="none" stroke="red" stroke-width="0.5"/>
<path d="M441.87 150.66L438.64 150.66"
fill="none" stroke="red" stroke-width="0.5"/>
<path d="M462.56 150.66L465.79 150.66"
fill="none" stroke="red" stroke-width="0.5"/>
<path d="M441.87 151.2L445.09 150.66 445.09 150.66 441.87 150.13 441.87 151.2Z"
fill-rule="evenodd" fill="red"/>
<path d="M462.56 150.13L459.33 150.66 459.33 150.66 462.56 151.2 462.56 150.13Z"
fill-rule="evenodd" fill="red"/>
<path d="M447.37 150.66L448.99 150.66M448.99 150.66L449.52 151.2M449.52 151.2L449.52 151.74M449.52 151.74L448.99 152.28M448.99 152.28L447.91 152.28M447.91 152.28L447.37 151.74M447.37 151.74L447.37 150.13M447.37 150.13L448.45 149.05M448.45 149.05L448.99 149.05M450.6 152.28L450.6 151.74M451.68 149.59L452.21 149.05M452.21 149.05L453.29 149.05M453.29 149.05L453.83 149.59M453.83 149.59L453.83 150.13M453.83 150.13L453.29 150.66M453.29 150.66L452.75 150.66M453.29 150.66L453.83 151.2M453.83 151.2L453.83 151.74M453.83 151.74L453.29 152.28M453.29 152.28L452.21 152.28M452.21 152.28L451.68 151.74M454.9 151.74L455.44 152.28M455.44 152.28L456.52 152.28M456.52 152.28L457.06 151.74M457.06 151.74L457.06 150.66M457.06 150.66L456.52 150.13M456.52 150.13L454.9 150.13M454.9 150.13L454.9 149.05M454.9 149.05L457.06 149.05"
fill="none" stroke="red" stroke-width="0.5"/>
<path d="M445.09 139.4L445.09 139.4"
fill="none" stroke="red" stroke-width="0.5"/>
<path d="M459.33 139.4L459.33 139.4"
fill="none" stroke="red" stroke-width="0.5"/>
<path d="M459.33 150.66L459.33 150.66"
fill="none" stroke="red" stroke-width="0.5"/>
<path d="M334 140.52L334 153.89"
fill="none" stroke="red" stroke-width="0.5"/>
<path d="M348.24 140.52L348.24 153.89"
fill="none" stroke="red" stroke-width="0.5"/>
<path d="M330.77 150.66L327.54 150.66"
fill="none" stroke="red" stroke-width="0.5"/>
<path d="M351.46 150.66L354.69 150.66"
fill="none" stroke="red" stroke-width="0.5"/>
<path d="M330.77 151.2L334 150.66 334 150.66 330.77 150.13 330.77 151.2Z"
fill-rule="evenodd" fill="red"/>
<path d="M351.46 150.13L348.24 150.66 348.24 150.66 351.46 151.2 351.46 150.13Z"
fill-rule="evenodd" fill="red"/>
<path d="M336.27 150.66L337.89 150.66M337.89 150.66L338.43 151.2M338.43 151.2L338.43 151.74M338.43 151.74L337.89 152.28M337.89 152.28L336.81 152.28M336.81 152.28L336.27 151.74M336.27 151.74L336.27 150.13M336.27 150.13L337.35 149.05M337.35 149.05L337.89 149.05M339.5 152.28L339.5 151.74M340.58 149.59L341.12 149.05M341.12 149.05L342.19 149.05M342.19 149.05L342.73 149.59M342.73 149.59L342.73 150.13M342.73 150.13L342.19 150.66M342.19 150.66L341.66 150.66M342.19 150.66L342.73 151.2M342.73 151.2L342.73 151.74M342.73 151.74L342.19 152.28M342.19 152.28L341.12 152.28M341.12 152.28L340.58 151.74M343.81 151.74L344.35 152.28M344.35 152.28L345.42 152.28M345.42 152.28L345.96 151.74M345.96 151.74L345.96 150.66M345.96 150.66L345.42 150.13M345.42 150.13L343.81 150.13M343.81 150.13L343.81 149.05M343.81 149.05L345.96 149.05"
fill="none" stroke="red" stroke-width="0.5"/>
<path d="M334 139.4L334 139.4"
fill="none" stroke="red" stroke-width="0.5"/>
<path d="M348.24 139.4L348.24 139.4"
fill="none" stroke="red" stroke-width="0.5"/>
<path d="M348.24 150.66L348.24 150.66"
fill="none" stroke="red" stroke-width="0.5"/>
<path d="M334.12 108.8L334.12 90.41"
fill="none" stroke="red" stroke-width="0.5"/>
<path d="M317.31 102.07L317.31 90.41"
fill="none" stroke="red" stroke-width="0.5"/>
<path d="M337.35 93.64L340.58 93.64"
fill="none" stroke="red" stroke-width="0.5"/>
<path d="M314.08 93.64L310.85 93.64"
fill="none" stroke="red" stroke-width="0.5"/>
<path d="M337.35 93.1L334.12 93.64 334.12 93.64 337.35 94.17 337.35 93.1Z"
fill-rule="evenodd" fill="red"/>
<path d="M314.08 94.17L317.31 93.64 317.31 93.64 314.08 93.1 314.08 94.17Z"
fill-rule="evenodd" fill="red"/>
<path d="M321.14 92.02L323.29 92.02M323.29 92.02L321.68 95.25M324.37 95.25L324.37 94.71M325.45 94.71L325.98 95.25M325.98 95.25L327.06 95.25M327.06 95.25L327.6 94.71M327.6 94.71L327.6 93.64M327.6 93.64L327.06 93.1M327.06 93.1L325.45 93.1M325.45 93.1L325.45 92.02M325.45 92.02L327.6 92.02M329.21 95.25L328.67 94.71M328.67 94.71L328.67 92.56M328.67 92.56L329.21 92.02M329.21 92.02L329.75 92.02M329.75 92.02L330.29 92.56M330.29 92.56L330.29 94.71M330.29 94.71L329.75 95.25M329.75 95.25L329.21 95.25"
fill="none" stroke="red" stroke-width="0.5"/>
<path d="M334.12 109.92L334.12 109.92"
fill="none" stroke="red" stroke-width="0.5"/>
<path d="M317.31 103.19L317.31 103.19"
fill="none" stroke="red" stroke-width="0.5"/>
<path d="M317.31 93.64L317.31 93.64"
fill="none" stroke="red" stroke-width="0.5"/>
<path d="M459.41 108.8L459.41 90.41"
fill="none" stroke="red" stroke-width="0.5"/>
<path d="M476.05 102.07L476.05 90.41"
fill="none" stroke="red" stroke-width="0.5"/>
<path d="M456.18 93.64L452.95 93.64"
fill="none" stroke="red" stroke-width="0.5"/>
<path d="M479.27 93.64L482.5 93.64"
fill="none" stroke="red" stroke-width="0.5"/>
<path d="M456.18 94.17L459.41 93.64 459.41 93.64 456.18 93.1 456.18 94.17Z"
fill-rule="evenodd" fill="red"/>
<path d="M479.27 93.1L476.05 93.64 476.05 93.64 479.27 94.17 479.27 93.1Z"
fill-rule="evenodd" fill="red"/>
<path d="M462.89 92.02L465.04 92.02M465.04 92.02L463.42 95.25M466.11 95.25L466.11 94.71M469.34 94.17L467.19 94.17M467.19 94.17L468.8 92.02M468.8 92.02L468.8 95.25M470.42 92.56L470.96 92.02M470.96 92.02L472.03 92.02M472.03 92.02L472.57 92.56M472.57 92.56L472.57 93.1M472.57 93.1L472.03 93.64M472.03 93.64L470.96 93.64M470.96 93.64L470.42 94.17M470.42 94.17L470.42 95.25M470.42 95.25L472.57 95.25"
fill="none" stroke="red" stroke-width="0.5"/>
<path d="M459.41 109.92L459.41 109.92"
fill="none" stroke="red" stroke-width="0.5"/>
<path d="M476.05 103.19L476.05 103.19"
fill="none" stroke="red" stroke-width="0.5"/>
<path d="M476.05 93.64L476.05 93.64"
fill="none" stroke="red" stroke-width="0.5"/>
<path d="M316.19 391.3L280.43 391.3"
fill="none" stroke="red" stroke-width="0.5"/>
<path d="M316.19 103.19L280.43 103.19"
fill="none" stroke="red" stroke-width="0.5"/>
<path d="M283.65 388.07L283.65 250.47"
fill="none" stroke="red" stroke-width="0.5"/>
<path d="M283.65 106.42L283.65 244.02"
fill="none" stroke="red" stroke-width="0.5"/>
<path d="M283.12 388.07L283.65 391.3 283.65 391.3 284.19 388.07 283.12 388.07Z"
fill-rule="evenodd" fill="red"/>
<path d="M284.19 106.42L283.65 103.19 283.65 103.19 283.12 106.42 284.19 106.42Z"
fill-rule="evenodd" fill="red"/>
<path d="M276.39 246.17L276.93 245.63M276.93 245.63L276.93 248.86M276.39 248.86L277.47 248.86M278.54 246.17L279.08 245.63M279.08 245.63L280.16 245.63M280.16 245.63L280.69 246.17M280.69 246.17L280.69 246.71M280.69 246.71L280.16 247.24M280.16 247.24L279.08 247.24M279.08 247.24L278.54 247.78M278.54 247.78L278.54 248.86M278.54 248.86L280.69 248.86M282.31 248.86L281.77 248.32M281.77 248.32L281.77 247.78M281.77 247.78L282.31 247.24M282.31 247.24L283.39 247.24M283.39 247.24L283.92 246.71M283.92 246.71L283.92 246.17M283.92 246.17L283.39 245.63M283.39 245.63L282.31 245.63M282.31 245.63L281.77 246.17M281.77 246.17L281.77 246.71M281.77 246.71L282.31 247.24M283.39 247.24L283.92 247.78M283.92 247.78L283.92 248.32M283.92 248.32L283.39 248.86M283.39 248.86L282.31 248.86M285 248.86L285 248.32M286.08 248.32L286.61 248.86M286.61 248.86L287.69 248.86M287.69 248.86L288.23 248.32M288.23 248.32L288.23 247.24M288.23 247.24L287.69 246.71M287.69 246.71L286.08 246.71M286.08 246.71L286.08 245.63M286.08 245.63L288.23 245.63M289.84 248.86L289.3 248.32M289.3 248.32L289.3 246.17M289.3 246.17L289.84 245.63M289.84 245.63L290.38 245.63M290.38 245.63L290.92 246.17M290.92 246.17L290.92 248.32M290.92 248.32L290.38 248.86M290.38 248.86L289.84 248.86"
fill="none" stroke="red" stroke-width="0.5"/>
<path d="M317.31 391.3L317.31 391.3"
fill="none" stroke="red" stroke-width="0.5"/>
<path d="M317.31 103.19L317.31 103.19"
fill="none" stroke="red" stroke-width="0.5"/>
<path d="M283.65 103.19L283.65 103.19"
fill="none" stroke="red" stroke-width="0.5"/>
<path d="M344.55 122.73L341.32 122.73"
fill="none" stroke="red" stroke-width="0.5"/>
<path d="M341.32 122.73L337.46 115.86"
fill="none" stroke="red" stroke-width="0.5"/>
<path d="M346.7 123.81L346.17 123.27M346.17 123.27L346.17 122.19M346.17 122.19L346.7 121.65M346.7 121.65L347.78 121.65M347.78 121.65L348.32 122.19M348.32 122.19L348.32 123.27M348.32 123.27L347.78 123.81M347.78 123.81L346.7 123.81M346.44 124.35L348.05 121.12M349.39 121.65L349.93 121.12M349.93 121.12L351.01 121.12M351.01 121.12L351.55 121.65M351.55 121.65L351.55 122.19M351.55 122.19L351.01 122.73M351.01 122.73L350.47 122.73M351.01 122.73L351.55 123.27M351.55 123.27L351.55 123.81M351.55 123.81L351.01 124.35M351.01 124.35L349.93 124.35M349.93 124.35L349.39 123.81M352.62 124.35L352.62 123.81M353.7 121.65L354.24 121.12M354.24 121.12L355.31 121.12M355.31 121.12L355.85 121.65M355.85 121.65L355.85 122.19M355.85 122.19L355.31 122.73M355.31 122.73L354.24 122.73M354.24 122.73L353.7 123.27M353.7 123.27L353.7 124.35M353.7 124.35L355.85 124.35M357.47 124.35L356.93 123.81M356.93 123.81L356.93 121.65M356.93 121.65L357.47 121.12M357.47 121.12L358 121.12M358 121.12L358.54 121.65M358.54 121.65L358.54 123.81M358.54 123.81L358 124.35M358 124.35L357.47 124.35M362.85 124.35L365 122.19M362.85 122.19L365 124.35M368.23 123.27L366.08 123.27M366.08 123.27L367.69 121.12M367.69 121.12L367.69 124.35"
fill="none" stroke="red" stroke-width="0.5"/>
<path d="M337.93 115.6L335.88 113.05 335.88 113.05 336.99 116.12 337.93 115.6Z"
fill-rule="evenodd" fill="red"/>
<path d="M332.51 109.92L335.74 109.92"
fill="none" stroke="red" stroke-width="0.5"/>
<path d="M334.12 111.53L334.12 108.3"
fill="none" stroke="red" stroke-width="0.5"/>
<path d="M330.89 109.92L328.92 109.92"
fill="none" stroke="red" stroke-width="0.5"/>
<path d="M337.35 109.92L339.32 109.92"
fill="none" stroke="red" stroke-width="0.5"/>
<path d="M334.12 113.15L334.12 115.12"
fill="none" stroke="red" stroke-width="0.5"/>
<path d="M334.12 106.69L334.12 104.72"
fill="none" stroke="red" stroke-width="0.5"/>
<path d="M335.88 113.05L335.88 113.05"
fill="none" stroke="red" stroke-width="0.5"/>
<path d="M332.37 106.79L332.37 106.79"
fill="none" stroke="red" stroke-width="0.5"/>
<path d="M453.77 123.65L450.54 123.65"
fill="none" stroke="red" stroke-width="0.5"/>
<path d="M450.54 123.65L447.28 133.07"
fill="none" stroke="red" stroke-width="0.5"/>
<path d="M455.92 124.72L455.38 124.18M455.38 124.18L455.38 123.11M455.38 123.11L455.92 122.57M455.92 122.57L456.99 122.57M456.99 122.57L457.53 123.11M457.53 123.11L457.53 124.18M457.53 124.18L456.99 124.72M456.99 124.72L455.92 124.72M455.65 125.26L457.26 122.03M458.61 122.57L459.15 122.03M459.15 122.03L460.22 122.03M460.22 122.03L460.76 122.57M460.76 122.57L460.76 123.11M460.76 123.11L460.22 123.65M460.22 123.65L459.69 123.65M460.22 123.65L460.76 124.18M460.76 124.18L460.76 124.72M460.76 124.72L460.22 125.26M460.22 125.26L459.15 125.26M459.15 125.26L458.61 124.72M461.84 125.26L461.84 124.72M462.91 122.57L463.45 122.03M463.45 122.03L463.45 125.26M462.91 125.26L463.99 125.26M465.6 125.26L465.07 124.72M465.07 124.72L465.07 122.57M465.07 122.57L465.6 122.03M465.6 122.03L466.14 122.03M466.14 122.03L466.68 122.57M466.68 122.57L466.68 124.72M466.68 124.72L466.14 125.26M466.14 125.26L465.6 125.26M470.99 125.26L473.14 123.11M470.99 123.11L473.14 125.26M474.21 122.57L474.75 122.03M474.75 122.03L475.83 122.03M475.83 122.03L476.37 122.57M476.37 122.57L476.37 123.11M476.37 123.11L475.83 123.65M475.83 123.65L474.75 123.65M474.75 123.65L474.21 124.18M474.21 124.18L474.21 125.26M474.21 125.26L476.37 125.26"
fill="none" stroke="red" stroke-width="0.5"/>
<path d="M446.77 132.89L446.23 136.12 446.23 136.12 447.79 133.24 446.77 132.89Z"
fill-rule="evenodd" fill="red"/>
<path d="M443.48 139.4L446.71 139.4"
fill="none" stroke="red" stroke-width="0.5"/>
<path d="M445.09 141.02L445.09 137.79"
fill="none" stroke="red" stroke-width="0.5"/>
<path d="M441.87 139.4L440 139.4"
fill="none" stroke="red" stroke-width="0.5"/>
<path d="M448.32 139.4L450.18 139.4"
fill="none" stroke="red" stroke-width="0.5"/>
<path d="M445.09 142.63L445.09 144.49"
fill="none" stroke="red" stroke-width="0.5"/>
<path d="M445.09 136.17L445.09 134.31"
fill="none" stroke="red" stroke-width="0.5"/>
<path d="M446.23 136.12L446.23 136.12"
fill="none" stroke="red" stroke-width="0.5"/>
<path d="M443.96 142.69L443.96 142.69"
fill="none" stroke="red" stroke-width="0.5"/>
<path d="M472.44 146.7L469.22 146.7"
fill="none" stroke="red" stroke-width="0.5"/>
<path d="M469.22 146.7L466.62 144.78"
fill="none" stroke="red" stroke-width="0.5"/>
<path d="M474.6 147.78L474.06 147.24M474.06 147.24L474.06 146.16M474.06 146.16L474.6 145.62M474.6 145.62L475.67 145.62M475.67 145.62L476.21 146.16M476.21 146.16L476.21 147.24M476.21 147.24L475.67 147.78M475.67 147.78L474.6 147.78M474.33 148.31L475.94 145.09M477.29 147.78L477.82 148.31M477.82 148.31L478.9 148.31M478.9 148.31L479.44 147.78M479.44 147.78L479.44 146.7M479.44 146.7L478.9 146.16M478.9 146.16L477.29 146.16M477.29 146.16L477.29 145.09M477.29 145.09L479.44 145.09M480.52 148.31L480.52 147.78M481.59 145.62L482.13 145.09M482.13 145.09L483.21 145.09M483.21 145.09L483.74 145.62M483.74 145.62L483.74 146.16M483.74 146.16L483.21 146.7M483.21 146.7L482.13 146.7M482.13 146.7L481.59 147.24M481.59 147.24L481.59 148.31M481.59 148.31L483.74 148.31M485.36 148.31L484.82 147.78M484.82 147.78L484.82 145.62M484.82 145.62L485.36 145.09M485.36 145.09L485.9 145.09M485.9 145.09L486.43 145.62M486.43 145.62L486.43 147.78M486.43 147.78L485.9 148.31M485.9 148.31L485.36 148.31M490.74 148.31L492.89 146.16M490.74 146.16L492.89 148.31M493.97 145.62L494.51 145.09M494.51 145.09L495.58 145.09M495.58 145.09L496.12 145.62M496.12 145.62L496.12 146.16M496.12 146.16L495.58 146.7M495.58 146.7L494.51 146.7M494.51 146.7L493.97 147.24M493.97 147.24L493.97 148.31M493.97 148.31L496.12 148.31"
fill="none" stroke="red" stroke-width="0.5"/>
<path d="M466.94 144.35L464.02 142.86 464.02 142.86 466.3 145.22 466.94 144.35Z"
fill-rule="evenodd" fill="red"/>
<path d="M457.72 139.4L460.95 139.4"
fill="none" stroke="red" stroke-width="0.5"/>
<path d="M459.33 141.02L459.33 137.79"
fill="none" stroke="red" stroke-width="0.5"/>
<path d="M456.1 139.4L451.89 139.4"
fill="none" stroke="red" stroke-width="0.5"/>
<path d="M462.56 139.4L466.78 139.4"
fill="none" stroke="red" stroke-width="0.5"/>
<path d="M459.33 142.63L459.33 146.85"
fill="none" stroke="red" stroke-width="0.5"/>
<path d="M459.33 136.17L459.33 131.96"
fill="none" stroke="red" stroke-width="0.5"/>
<path d="M464.02 142.86L464.02 142.86"
fill="none" stroke="red" stroke-width="0.5"/>
<path d="M454.64 135.94L454.64 135.94"
fill="none" stroke="red" stroke-width="0.5"/>
<path d="M374.38 160.42L371.15 160.42"
fill="none" stroke="red" stroke-width="0.5"/>
<path d="M371.15 160.42L365.99 168.42"
fill="none" stroke="red" stroke-width="0.5"/>
<path d="M376.54 161.5L376 160.96M376 160.96L376 159.88M376 159.88L376.54 159.35M376.54 159.35L377.61 159.35M377.61 159.35L378.15 159.88M378.15 159.88L378.15 160.96M378.15 160.96L377.61 161.5M377.61 161.5L376.54 161.5M376.27 162.04L377.88 158.81M379.23 158.81L381.38 158.81M381.38 158.81L379.76 162.04M382.45 162.04L382.45 161.5M383.53 161.5L384.07 162.04M384.07 162.04L385.15 162.04M385.15 162.04L385.68 161.5M385.68 161.5L385.68 160.42M385.68 160.42L385.15 159.88M385.15 159.88L383.53 159.88M383.53 159.88L383.53 158.81M383.53 158.81L385.68 158.81M387.3 162.04L386.76 161.5M386.76 161.5L386.76 159.35M386.76 159.35L387.3 158.81M387.3 158.81L387.84 158.81M387.84 158.81L388.37 159.35M388.37 159.35L388.37 161.5M388.37 161.5L387.84 162.04M387.84 162.04L387.3 162.04M392.68 162.04L394.83 159.88M392.68 159.88L394.83 162.04M395.91 159.35L396.45 158.81M396.45 158.81L397.52 158.81M397.52 158.81L398.06 159.35M398.06 159.35L398.06 159.88M398.06 159.88L397.52 160.42M397.52 160.42L396.45 160.42M396.45 160.42L395.91 160.96M395.91 160.96L395.91 162.04M395.91 162.04L398.06 162.04"
fill="none" stroke="red" stroke-width="0.5"/>
<path d="M365.54 168.12L364.24 171.13 364.24 171.13 366.44 168.71 365.54 168.12Z"
fill-rule="evenodd" fill="red"/>
<path d="M358.06 178.19L361.29 178.19"
fill="none" stroke="red" stroke-width="0.5"/>
<path d="M359.67 179.8L359.67 176.57"
fill="none" stroke="red" stroke-width="0.5"/>
<path d="M356.44 178.19L349.65 178.19"
fill="none" stroke="red" stroke-width="0.5"/>
<path d="M362.9 178.19L369.69 178.19"
fill="none" stroke="red" stroke-width="0.5"/>
<path d="M359.67 181.42L359.67 188.21"
fill="none" stroke="red" stroke-width="0.5"/>
<path d="M359.67 174.96L359.67 168.17"
fill="none" stroke="red" stroke-width="0.5"/>
<path d="M364.24 171.13L364.24 171.13"
fill="none" stroke="red" stroke-width="0.5"/>
<path d="M355.11 185.25L355.11 185.25"
fill="none" stroke="red" stroke-width="0.5"/>
<path d="M357.69 221.02L354.46 221.02"
fill="none" stroke="red" stroke-width="0.5"/>
<path d="M354.46 221.02L349.4 229.26"
fill="none" stroke="red" stroke-width="0.5"/>
<path d="M359.84 222.1L359.3 221.56M359.3 221.56L359.3 220.48M359.3 220.48L359.84 219.94M359.84 219.94L360.92 219.94M360.92 219.94L361.46 220.48M361.46 220.48L361.46 221.56M361.46 221.56L360.92 222.1M360.92 222.1L359.84 222.1M359.57 222.63L361.19 219.41M362.53 219.41L364.69 219.41M364.69 219.41L363.07 222.63M365.76 222.63L365.76 222.1M366.84 222.1L367.38 222.63M367.38 222.63L368.45 222.63M368.45 222.63L368.99 222.1M368.99 222.1L368.99 221.02M368.99 221.02L368.45 220.48M368.45 220.48L366.84 220.48M366.84 220.48L366.84 219.41M366.84 219.41L368.99 219.41M370.6 222.63L370.07 222.1M370.07 222.1L370.07 219.94M370.07 219.94L370.6 219.41M370.6 219.41L371.14 219.41M371.14 219.41L371.68 219.94M371.68 219.94L371.68 222.1M371.68 222.1L371.14 222.63M371.14 222.63L370.6 222.63M375.99 222.63L378.14 220.48M375.99 220.48L378.14 222.63M379.21 219.94L379.75 219.41M379.75 219.41L380.83 219.41M380.83 219.41L381.37 219.94M381.37 219.94L381.37 220.48M381.37 220.48L380.83 221.02M380.83 221.02L380.29 221.02M380.83 221.02L381.37 221.56M381.37 221.56L381.37 222.1M381.37 222.1L380.83 222.63M380.83 222.63L379.75 222.63M379.75 222.63L379.21 222.1"
fill="none" stroke="red" stroke-width="0.5"/>
<path d="M348.94 228.98L347.71 232.01 347.71 232.01 349.86 229.54 348.94 228.98Z"
fill-rule="evenodd" fill="red"/>
<path d="M341.69 239.17L344.92 239.17"
fill="none" stroke="red" stroke-width="0.5"/>
<path d="M343.3 240.79L343.3 237.56"
fill="none" stroke="red" stroke-width="0.5"/>
<path d="M340.08 239.17L333.28 239.17"
fill="none" stroke="red" stroke-width="0.5"/>
<path d="M346.53 239.17L353.33 239.17"
fill="none" stroke="red" stroke-width="0.5"/>
<path d="M343.3 242.4L343.3 249.2"
fill="none" stroke="red" stroke-width="0.5"/>
<path d="M343.3 235.94L343.3 229.15"
fill="none" stroke="red" stroke-width="0.5"/>
<path d="M347.71 232.01L347.71 232.01"
fill="none" stroke="red" stroke-width="0.5"/>
<path d="M338.9 246.34L338.9 246.34"
fill="none" stroke="red" stroke-width="0.5"/>
<path d="M351.06 268.58L347.83 268.58"
fill="none" stroke="red" stroke-width="0.5"/>
<path d="M347.83 268.58L344.04 274.76"
fill="none" stroke="red" stroke-width="0.5"/>
<path d="M353.21 269.66L352.67 269.12M352.67 269.12L352.67 268.05M352.67 268.05L353.21 267.51M353.21 267.51L354.29 267.51M354.29 267.51L354.83 268.05M354.83 268.05L354.83 269.12M354.83 269.12L354.29 269.66M354.29 269.66L353.21 269.66M352.94 270.2L354.56 266.97M355.9 268.58L357.52 268.58M357.52 268.58L358.05 269.12M358.05 269.12L358.05 269.66M358.05 269.66L357.52 270.2M357.52 270.2L356.44 270.2M356.44 270.2L355.9 269.66M355.9 269.66L355.9 268.05M355.9 268.05L356.98 266.97M356.98 266.97L357.52 266.97M359.13 270.2L359.13 269.66M360.74 270.2L360.21 269.66M360.21 269.66L360.21 269.12M360.21 269.12L360.74 268.58M360.74 268.58L361.82 268.58M361.82 268.58L362.36 268.05M362.36 268.05L362.36 267.51M362.36 267.51L361.82 266.97M361.82 266.97L360.74 266.97M360.74 266.97L360.21 267.51M360.21 267.51L360.21 268.05M360.21 268.05L360.74 268.58M361.82 268.58L362.36 269.12M362.36 269.12L362.36 269.66M362.36 269.66L361.82 270.2M361.82 270.2L360.74 270.2M363.97 270.2L363.44 269.66M363.44 269.66L363.44 267.51M363.44 267.51L363.97 266.97M363.97 266.97L364.51 266.97M364.51 266.97L365.05 267.51M365.05 267.51L365.05 269.66M365.05 269.66L364.51 270.2M364.51 270.2L363.97 270.2M369.35 270.2L371.51 268.05M369.35 268.05L371.51 270.2M372.58 269.66L373.12 270.2M373.12 270.2L374.2 270.2M374.2 270.2L374.74 269.66M374.74 269.66L374.74 268.58M374.74 268.58L374.2 268.05M374.2 268.05L372.58 268.05M372.58 268.05L372.58 266.97M372.58 266.97L374.74 266.97"
fill="none" stroke="red" stroke-width="0.5"/>
<path d="M343.58 274.48L342.36 277.52 342.36 277.52 344.5 275.04 343.58 274.48Z"
fill-rule="evenodd" fill="red"/>
<path d="M336.76 284.01L339.99 284.01"
fill="none" stroke="red" stroke-width="0.5"/>
<path d="M338.37 285.63L338.37 282.4"
fill="none" stroke="red" stroke-width="0.5"/>
<path d="M335.14 284.01L329.13 284.01"
fill="none" stroke="red" stroke-width="0.5"/>
<path d="M341.6 284.01L347.61 284.01"
fill="none" stroke="red" stroke-width="0.5"/>
<path d="M338.37 287.24L338.37 293.25"
fill="none" stroke="red" stroke-width="0.5"/>
<path d="M338.37 280.79L338.37 274.78"
fill="none" stroke="red" stroke-width="0.5"/>
<path d="M342.36 277.52L342.36 277.52"
fill="none" stroke="red" stroke-width="0.5"/>
<path d="M334.39 290.51L334.39 290.51"
fill="none" stroke="red" stroke-width="0.5"/>
<path d="M349.69 304.03L346.46 304.03"
fill="none" stroke="red" stroke-width="0.5"/>
<path d="M346.46 304.03L343.18 310.33"
fill="none" stroke="red" stroke-width="0.5"/>
<path d="M351.84 305.11L351.3 304.57M351.3 304.57L351.3 303.49M351.3 303.49L351.84 302.95M351.84 302.95L352.92 302.95M352.92 302.95L353.45 303.49M353.45 303.49L353.45 304.57M353.45 304.57L352.92 305.11M352.92 305.11L351.84 305.11M351.57 305.64L353.18 302.41M354.53 304.03L356.14 304.03M356.14 304.03L356.68 304.57M356.68 304.57L356.68 305.11M356.68 305.11L356.14 305.64M356.14 305.64L355.07 305.64M355.07 305.64L354.53 305.11M354.53 305.11L354.53 303.49M354.53 303.49L355.61 302.41M355.61 302.41L356.14 302.41M357.76 305.64L357.76 305.11M360.99 304.57L358.83 304.57M358.83 304.57L360.45 302.41M360.45 302.41L360.45 305.64M362.6 305.64L362.06 305.11M362.06 305.11L362.06 302.95M362.06 302.95L362.6 302.41M362.6 302.41L363.14 302.41M363.14 302.41L363.68 302.95M363.68 302.95L363.68 305.11M363.68 305.11L363.14 305.64M363.14 305.64L362.6 305.64M367.98 305.64L370.13 303.49M367.98 303.49L370.13 305.64M371.21 302.95L371.75 302.41M371.75 302.41L371.75 305.64M371.21 305.64L372.29 305.64M373.9 305.64L373.36 305.11M373.36 305.11L373.36 302.95M373.36 302.95L373.9 302.41M373.9 302.41L374.44 302.41M374.44 302.41L374.98 302.95M374.98 302.95L374.98 305.11M374.98 305.11L374.44 305.64M374.44 305.64L373.9 305.64"
fill="none" stroke="red" stroke-width="0.5"/>
<path d="M342.7 310.08L341.69 313.19 341.69 313.19 343.66 310.57 342.7 310.08Z"
fill-rule="evenodd" fill="red"/>
<path d="M336.76 319.55L339.99 319.55"
fill="none" stroke="red" stroke-width="0.5"/>
<path d="M338.37 321.17L338.37 317.94"
fill="none" stroke="red" stroke-width="0.5"/>
<path d="M335.14 319.55L329.58 319.55"
fill="none" stroke="red" stroke-width="0.5"/>
<path d="M341.6 319.55L347.16 319.55"
fill="none" stroke="red" stroke-width="0.5"/>
<path d="M338.37 322.78L338.37 328.34"
fill="none" stroke="red" stroke-width="0.5"/>
<path d="M338.37 316.32L338.37 310.76"
fill="none" stroke="red" stroke-width="0.5"/>
<path d="M341.69 313.19L341.69 313.19"
fill="none" stroke="red" stroke-width="0.5"/>
<path d="M335.06 325.91L335.06 325.91"
fill="none" stroke="red" stroke-width="0.5"/>
</svg>
