<?xml version="1.0" encoding="UTF-8"?>
<svg width="248px" height="487px" viewBox="0 0 248 487" version="1.1" xmlns="http://www.w3.org/2000/svg" xmlns:xlink="http://www.w3.org/1999/xlink">
    <!-- Generator: Sketch 52.2 (67145) - http://www.bohemiancoding.com/sketch -->
    <title>Slice 1</title>
    <desc>Created with Sketch.</desc>
    <g id="Page-1" stroke="none" stroke-width="1" fill="none" fill-rule="evenodd">
        <g id="peaks" stroke="#000000" stroke-width="0.5">
            <g id="Holes" transform="translate(64.000000, 61.000000)">
                <path d="M17.84,355.44 L18.02,354.17 M18.02,354.17 L18.56,353 M18.56,353 L19.4,352.03 M19.4,352.03 L20.48,351.34 M20.48,351.34 L21.71,350.97 M21.71,350.97 L23,350.97 M23,350.97 L24.23,351.34 M24.23,351.34 L25.31,352.03 M25.31,352.03 L26.16,353 M26.16,353 L26.69,354.17 M26.69,354.17 L26.87,355.44 M26.87,355.44 L26.69,356.72 M26.69,356.72 L26.16,357.89 M26.16,357.89 L25.31,358.86 M25.31,358.86 L24.23,359.55 M24.23,359.55 L23,359.91 M23,359.91 L21.71,359.91 M21.71,359.91 L20.48,359.55 M20.48,359.55 L19.4,358.86 M19.4,358.86 L18.56,357.89 M18.56,357.89 L18.02,356.72 M18.02,356.72 L17.84,355.44" id="Shape"></path>
                <path d="M17.84,9.66 L18.02,8.39 M18.02,8.39 L18.56,7.22 M18.56,7.22 L19.4,6.25 M19.4,6.25 L20.48,5.55 M20.48,5.55 L21.71,5.19 M21.71,5.19 L23,5.19 M23,5.19 L24.23,5.55 M24.23,5.55 L25.31,6.25 M25.31,6.25 L26.16,7.22 M26.16,7.22 L26.69,8.39 M26.69,8.39 L26.87,9.66 M26.87,9.66 L26.69,10.93 M26.69,10.93 L26.16,12.1 M26.16,12.1 L25.31,13.07 M25.31,13.07 L24.23,13.77 M24.23,13.77 L23,14.13 M23,14.13 L21.71,14.13 M21.71,14.13 L20.48,13.77 M20.48,13.77 L19.4,13.07 M19.4,13.07 L18.56,12.1 M18.56,12.1 L18.02,10.93 M18.02,10.93 L17.84,9.66" id="Shape"></path>
                <path d="M1.19,1.19 L1.19,363.91 M1.19,363.91 L114.94,363.91 M114.94,363.91 L114.94,1.19 M114.94,1.19 L1.19,1.19" id="Shape"></path>
                <path d="M12.43,314.8 L12.62,312.95 M12.62,312.95 L13.19,311.18 M13.19,311.18 L14.12,309.57 M14.12,309.57 L15.37,308.19 M15.37,308.19 L16.87,307.1 M16.87,307.1 L18.57,306.34 M18.57,306.34 L20.39,305.95 M20.39,305.95 L22.25,305.95 M22.25,305.95 L24.06,306.34 M24.06,306.34 L25.76,307.1 M25.76,307.1 L27.27,308.19 M27.27,308.19 L28.51,309.57 M28.51,309.57 L29.44,311.18 M29.44,311.18 L30.01,312.95 M30.01,312.95 L30.21,314.8 M30.21,314.8 L30.01,316.65 M30.01,316.65 L29.44,318.41 M29.44,318.41 L28.51,320.02 M28.51,320.02 L27.27,321.4 M27.27,321.4 L25.76,322.5 M25.76,322.5 L24.06,323.25 M24.06,323.25 L22.25,323.64 M22.25,323.64 L20.39,323.64 M20.39,323.64 L18.57,323.25 M18.57,323.25 L16.87,322.5 M16.87,322.5 L15.37,321.4 M15.37,321.4 L14.12,320.02 M14.12,320.02 L13.19,318.41 M13.19,318.41 L12.62,316.65 M12.62,316.65 L12.43,314.8" id="Shape"></path>
                <path d="M53.64,314.8 L53.83,312.95 M53.83,312.95 L54.41,311.18 M54.41,311.18 L55.34,309.57 M55.34,309.57 L56.58,308.19 M56.58,308.19 L58.08,307.1 M58.08,307.1 L59.78,306.34 M59.78,306.34 L61.6,305.95 M61.6,305.95 L63.46,305.95 M63.46,305.95 L65.28,306.34 M65.28,306.34 L66.97,307.1 M66.97,307.1 L68.48,308.19 M68.48,308.19 L69.72,309.57 M69.72,309.57 L70.65,311.18 M70.65,311.18 L71.23,312.95 M71.23,312.95 L71.42,314.8 M71.42,314.8 L71.23,316.65 M71.23,316.65 L70.65,318.41 M70.65,318.41 L69.72,320.02 M69.72,320.02 L68.48,321.4 M68.48,321.4 L66.97,322.5 M66.97,322.5 L65.28,323.25 M65.28,323.25 L63.46,323.64 M63.46,323.64 L61.6,323.64 M61.6,323.64 L59.78,323.25 M59.78,323.25 L58.08,322.5 M58.08,322.5 L56.58,321.4 M56.58,321.4 L55.34,320.02 M55.34,320.02 L54.41,318.41 M54.41,318.41 L53.83,316.65 M53.83,316.65 L53.64,314.8" id="Shape"></path>
                <path d="M85.9,314.8 L86.1,312.95 M86.1,312.95 L86.67,311.18 M86.67,311.18 L87.6,309.57 M87.6,309.57 L88.84,308.19 M88.84,308.19 L90.35,307.1 M90.35,307.1 L92.04,306.34 M92.04,306.34 L93.86,305.95 M93.86,305.95 L95.72,305.95 M95.72,305.95 L97.54,306.34 M97.54,306.34 L99.24,307.1 M99.24,307.1 L100.74,308.19 M100.74,308.19 L101.99,309.57 M101.99,309.57 L102.92,311.18 M102.92,311.18 L103.49,312.95 M103.49,312.95 L103.68,314.8 M103.68,314.8 L103.49,316.65 M103.49,316.65 L102.92,318.41 M102.92,318.41 L101.99,320.02 M101.99,320.02 L100.74,321.4 M100.74,321.4 L99.24,322.5 M99.24,322.5 L97.54,323.25 M97.54,323.25 L95.72,323.64 M95.72,323.64 L93.86,323.64 M93.86,323.64 L92.04,323.25 M92.04,323.25 L90.35,322.5 M90.35,322.5 L88.84,321.4 M88.84,321.4 L87.6,320.02 M87.6,320.02 L86.67,318.41 M86.67,318.41 L86.1,316.65 M86.1,316.65 L85.9,314.8" id="Shape"></path>
                <path d="M68.09,253.85 L68.28,251.85 M68.28,251.85 L68.85,249.92 M68.85,249.92 L69.77,248.13 M69.77,248.13 L71.01,246.55 M71.01,246.55 L72.53,245.23 M72.53,245.23 L74.28,244.23 M74.28,244.23 L76.18,243.57 M76.18,243.57 L78.17,243.28 M78.17,243.28 L80.18,243.38 M80.18,243.38 L82.14,243.85 M82.14,243.85 L83.97,244.69 M83.97,244.69 L85.61,245.85 M85.61,245.85 L87,247.31 M87,247.31 L88.08,249 M88.08,249 L88.83,250.87 M88.83,250.87 L89.21,252.85 M89.21,252.85 L89.21,254.86 M89.21,254.86 L88.83,256.84 M88.83,256.84 L88.08,258.7 M88.08,258.7 L87,260.4 M87,260.4 L85.61,261.85 M85.61,261.85 L83.97,263.02 M83.97,263.02 L82.14,263.86 M82.14,263.86 L80.18,264.33 M80.18,264.33 L78.17,264.43 M78.17,264.43 L76.18,264.14 M76.18,264.14 L74.28,263.48 M74.28,263.48 L72.53,262.48 M72.53,262.48 L71.01,261.16 M71.01,261.16 L69.77,259.58 M69.77,259.58 L68.85,257.79 M68.85,257.79 L68.28,255.86 M68.28,255.86 L68.09,253.85" id="Shape"></path>
                <path d="M68.09,192.01 L68.28,190.01 M68.28,190.01 L68.85,188.07 M68.85,188.07 L69.77,186.29 M69.77,186.29 L71.01,184.7 M71.01,184.7 L72.53,183.39 M72.53,183.39 L74.28,182.38 M74.28,182.38 L76.18,181.72 M76.18,181.72 L78.17,181.44 M78.17,181.44 L80.18,181.53 M80.18,181.53 L82.14,182.01 M82.14,182.01 L83.97,182.84 M83.97,182.84 L85.61,184.01 M85.61,184.01 L87,185.47 M87,185.47 L88.08,187.16 M88.08,187.16 L88.83,189.03 M88.83,189.03 L89.21,191 M89.21,191 L89.21,193.01 M89.21,193.01 L88.83,194.99 M88.83,194.99 L88.08,196.86 M88.08,196.86 L87,198.55 M87,198.55 L85.61,200.01 M85.61,200.01 L83.97,201.18 M83.97,201.18 L82.14,202.01 M82.14,202.01 L80.18,202.49 M80.18,202.49 L78.17,202.58 M78.17,202.58 L76.18,202.3 M76.18,202.3 L74.28,201.64 M74.28,201.64 L72.53,200.63 M72.53,200.63 L71.01,199.31 M71.01,199.31 L69.77,197.73 M69.77,197.73 L68.85,195.94 M68.85,195.94 L68.28,194.01 M68.28,194.01 L68.09,192.01" id="Shape"></path>
                <path d="M68.09,130.16 L68.28,128.16 M68.28,128.16 L68.85,126.23 M68.85,126.23 L69.77,124.44 M69.77,124.44 L71.01,122.86 M71.01,122.86 L72.53,121.54 M72.53,121.54 L74.28,120.53 M74.28,120.53 L76.18,119.88 M76.18,119.88 L78.17,119.59 M78.17,119.59 L80.18,119.69 M80.18,119.69 L82.14,120.16 M82.14,120.16 L83.97,121 M83.97,121 L85.61,122.16 M85.61,122.16 L87,123.62 M87,123.62 L88.08,125.31 M88.08,125.31 L88.83,127.18 M88.83,127.18 L89.21,129.16 M89.21,129.16 L89.21,131.17 M89.21,131.17 L88.83,133.15 M88.83,133.15 L88.08,135.01 M88.08,135.01 L87,136.71 M87,136.71 L85.61,138.16 M85.61,138.16 L83.97,139.33 M83.97,139.33 L82.14,140.17 M82.14,140.17 L80.18,140.64 M80.18,140.64 L78.17,140.74 M78.17,140.74 L76.18,140.45 M76.18,140.45 L74.28,139.79 M74.28,139.79 L72.53,138.79 M72.53,138.79 L71.01,137.47 M71.01,137.47 L69.77,135.89 M69.77,135.89 L68.85,134.1 M68.85,134.1 L68.28,132.17 M68.28,132.17 L68.09,130.16" id="Shape"></path>
                <path d="M68.09,68.32 L68.28,66.31 M68.28,66.31 L68.85,64.38 M68.85,64.38 L69.77,62.59 M69.77,62.59 L71.01,61.01 M71.01,61.01 L72.53,59.69 M72.53,59.69 L74.28,58.69 M74.28,58.69 L76.18,58.03 M76.18,58.03 L78.17,57.74 M78.17,57.74 L80.18,57.84 M80.18,57.84 L82.14,58.31 M82.14,58.31 L83.97,59.15 M83.97,59.15 L85.61,60.32 M85.61,60.32 L87,61.77 M87,61.77 L88.08,63.47 M88.08,63.47 L88.83,65.34 M88.83,65.34 L89.21,67.31 M89.21,67.31 L89.21,69.32 M89.21,69.32 L88.83,71.3 M88.83,71.3 L88.08,73.17 M88.08,73.17 L87,74.86 M87,74.86 L85.61,76.32 M85.61,76.32 L83.97,77.48 M83.97,77.48 L82.14,78.32 M82.14,78.32 L80.18,78.79 M80.18,78.79 L78.17,78.89 M78.17,78.89 L76.18,78.6 M76.18,78.6 L74.28,77.95 M74.28,77.95 L72.53,76.94 M72.53,76.94 L71.01,75.62 M71.01,75.62 L69.77,74.04 M69.77,74.04 L68.85,72.25 M68.85,72.25 L68.28,70.32 M68.28,70.32 L68.09,68.32" id="Shape"></path>
                <path d="M12.43,232.35 L12.62,230.5 M12.62,230.5 L13.19,228.73 M13.19,228.73 L14.12,227.12 M14.12,227.12 L15.37,225.74 M15.37,225.74 L16.87,224.64 M16.87,224.64 L18.57,223.89 M18.57,223.89 L20.39,223.5 M20.39,223.5 L22.25,223.5 M22.25,223.5 L24.06,223.89 M24.06,223.89 L25.76,224.64 M25.76,224.64 L27.27,225.74 M27.27,225.74 L28.51,227.12 M28.51,227.12 L29.44,228.73 M29.44,228.73 L30.01,230.5 M30.01,230.5 L30.21,232.35 M30.21,232.35 L30.01,234.19 M30.01,234.19 L29.44,235.96 M29.44,235.96 L28.51,237.57 M28.51,237.57 L27.27,238.95 M27.27,238.95 L25.76,240.05 M25.76,240.05 L24.06,240.8 M24.06,240.8 L22.25,241.19 M22.25,241.19 L20.39,241.19 M20.39,241.19 L18.57,240.8 M18.57,240.8 L16.87,240.05 M16.87,240.05 L15.37,238.95 M15.37,238.95 L14.12,237.57 M14.12,237.57 L13.19,235.96 M13.19,235.96 L12.62,234.19 M12.62,234.19 L12.43,232.35" id="Shape"></path>
                <path d="M10.03,274.46 L10.22,272.39 M10.22,272.39 L10.79,270.38 M10.79,270.38 L11.72,268.52 M11.72,268.52 L12.97,266.85 M12.97,266.85 L14.51,265.45 M14.51,265.45 L16.28,264.35 M16.28,264.35 L18.23,263.6 M18.23,263.6 L20.28,263.22 M20.28,263.22 L22.36,263.22 M22.36,263.22 L24.41,263.6 M24.41,263.6 L26.35,264.35 M26.35,264.35 L28.12,265.45 M28.12,265.45 L29.66,266.85 M29.66,266.85 L30.92,268.52 M30.92,268.52 L31.85,270.38 M31.85,270.38 L32.42,272.39 M32.42,272.39 L32.61,274.46 M32.61,274.46 L32.42,276.53 M32.42,276.53 L31.85,278.54 M31.85,278.54 L30.92,280.4 M30.92,280.4 L29.66,282.07 M29.66,282.07 L28.12,283.47 M28.12,283.47 L26.35,284.57 M26.35,284.57 L24.41,285.32 M24.41,285.32 L22.36,285.7 M22.36,285.7 L20.28,285.7 M20.28,285.7 L18.23,285.32 M18.23,285.32 L16.28,284.57 M16.28,284.57 L14.51,283.47 M14.51,283.47 L12.97,282.07 M12.97,282.07 L11.72,280.4 M11.72,280.4 L10.79,278.54 M10.79,278.54 L10.22,276.53 M10.22,276.53 L10.03,274.46" id="Shape"></path>
                <path d="M10.03,192.01 L10.22,189.93 M10.22,189.93 L10.79,187.93 M10.79,187.93 L11.72,186.06 M11.72,186.06 L12.97,184.4 M12.97,184.4 L14.51,183 M14.51,183 L16.28,181.9 M16.28,181.9 L18.23,181.15 M18.23,181.15 L20.28,180.77 M20.28,180.77 L22.36,180.77 M22.36,180.77 L24.41,181.15 M24.41,181.15 L26.35,181.9 M26.35,181.9 L28.12,183 M28.12,183 L29.66,184.4 M29.66,184.4 L30.92,186.06 M30.92,186.06 L31.85,187.93 M31.85,187.93 L32.42,189.93 M32.42,189.93 L32.61,192.01 M32.61,192.01 L32.42,194.08 M32.42,194.08 L31.85,196.09 M31.85,196.09 L30.92,197.95 M30.92,197.95 L29.66,199.62 M29.66,199.62 L28.12,201.02 M28.12,201.02 L26.35,202.12 M26.35,202.12 L24.41,202.87 M24.41,202.87 L22.36,203.25 M22.36,203.25 L20.28,203.25 M20.28,203.25 L18.23,202.87 M18.23,202.87 L16.28,202.12 M16.28,202.12 L14.51,201.02 M14.51,201.02 L12.97,199.62 M12.97,199.62 L11.72,197.95 M11.72,197.95 L10.79,196.09 M10.79,196.09 L10.22,194.08 M10.22,194.08 L10.03,192.01" id="Shape"></path>
                <path d="M11.55,156.16 L11.75,154.87 M11.75,154.87 L12.31,153.7 M12.31,153.7 L13.2,152.74 M13.2,152.74 L14.33,152.09 M14.33,152.09 L15.6,151.8 M15.6,151.8 L16.9,151.89 M16.9,151.89 L18.11,152.37 M18.11,152.37 L19.13,153.18 M19.13,153.18 L19.87,154.26 M19.87,154.26 L20.25,155.51 M20.25,155.51 L20.25,156.81 M20.25,156.81 L19.87,158.06 M19.87,158.06 L19.13,159.14 M19.13,159.14 L18.11,159.95 M18.11,159.95 L16.9,160.43 M16.9,160.43 L15.6,160.52 M15.6,160.52 L14.33,160.23 M14.33,160.23 L13.2,159.58 M13.2,159.58 L12.31,158.62 M12.31,158.62 L11.75,157.45 M11.75,157.45 L11.55,156.16" id="Shape"></path>
                <path d="M11.55,140.92 L11.75,139.63 M11.75,139.63 L12.31,138.45 M12.31,138.45 L13.2,137.5 M13.2,137.5 L14.33,136.84 M14.33,136.84 L15.6,136.55 M15.6,136.55 L16.9,136.65 M16.9,136.65 L18.11,137.13 M18.11,137.13 L19.13,137.94 M19.13,137.94 L19.87,139.02 M19.87,139.02 L20.25,140.27 M20.25,140.27 L20.25,141.57 M20.25,141.57 L19.87,142.82 M19.87,142.82 L19.13,143.89 M19.13,143.89 L18.11,144.71 M18.11,144.71 L16.9,145.18 M16.9,145.18 L15.6,145.28 M15.6,145.28 L14.33,144.99 M14.33,144.99 L13.2,144.34 M13.2,144.34 L12.31,143.38 M12.31,143.38 L11.75,142.21 M11.75,142.21 L11.55,140.92" id="Shape"></path>
                <path d="M11.55,125.67 L11.75,124.39 M11.75,124.39 L12.31,123.21 M12.31,123.21 L13.2,122.25 M13.2,122.25 L14.33,121.6 M14.33,121.6 L15.6,121.31 M15.6,121.31 L16.9,121.41 M16.9,121.41 L18.11,121.89 M18.11,121.89 L19.13,122.7 M19.13,122.7 L19.87,123.78 M19.87,123.78 L20.25,125.02 M20.25,125.02 L20.25,126.33 M20.25,126.33 L19.87,127.57 M19.87,127.57 L19.13,128.65 M19.13,128.65 L18.11,129.46 M18.11,129.46 L16.9,129.94 M16.9,129.94 L15.6,130.04 M15.6,130.04 L14.33,129.75 M14.33,129.75 L13.2,129.1 M13.2,129.1 L12.31,128.14 M12.31,128.14 L11.75,126.96 M11.75,126.96 L11.55,125.67" id="Shape"></path>
                <path d="M11.55,110.43 L11.75,109.14 M11.75,109.14 L12.31,107.97 M12.31,107.97 L13.2,107.01 M13.2,107.01 L14.33,106.36 M14.33,106.36 L15.6,106.07 M15.6,106.07 L16.9,106.17 M16.9,106.17 L18.11,106.64 M18.11,106.64 L19.13,107.46 M19.13,107.46 L19.87,108.53 M19.87,108.53 L20.25,109.78 M20.25,109.78 L20.25,111.08 M20.25,111.08 L19.87,112.33 M19.87,112.33 L19.13,113.41 M19.13,113.41 L18.11,114.22 M18.11,114.22 L16.9,114.7 M16.9,114.7 L15.6,114.8 M15.6,114.8 L14.33,114.5 M14.33,114.5 L13.2,113.85 M13.2,113.85 L12.31,112.9 M12.31,112.9 L11.75,111.72 M11.75,111.72 L11.55,110.43" id="Shape"></path>
                <path d="M11.55,74.58 L11.75,73.29 M11.75,73.29 L12.31,72.12 M12.31,72.12 L13.2,71.16 M13.2,71.16 L14.33,70.51 M14.33,70.51 L15.6,70.22 M15.6,70.22 L16.9,70.32 M16.9,70.32 L18.11,70.79 M18.11,70.79 L19.13,71.61 M19.13,71.61 L19.87,72.69 M19.87,72.69 L20.25,73.93 M20.25,73.93 L20.25,75.24 M20.25,75.24 L19.87,76.48 M19.87,76.48 L19.13,77.56 M19.13,77.56 L18.11,78.37 M18.11,78.37 L16.9,78.85 M16.9,78.85 L15.6,78.95 M15.6,78.95 L14.33,78.66 M14.33,78.66 L13.2,78 M13.2,78 L12.31,77.05 M12.31,77.05 L11.75,75.87 M11.75,75.87 L11.55,74.58" id="Shape"></path>
                <path d="M8.59,92.51 L8.78,90.82 M8.78,90.82 L9.37,89.21 M9.37,89.21 L10.3,87.79 M10.3,87.79 L11.54,86.62 M11.54,86.62 L13.02,85.77 M13.02,85.77 L14.65,85.28 M14.65,85.28 L16.35,85.18 M16.35,85.18 L18.03,85.48 M18.03,85.48 L19.6,86.15 M19.6,86.15 L20.96,87.17 M20.96,87.17 L22.06,88.47 M22.06,88.47 L22.82,90 M22.82,90 L23.22,91.66 M23.22,91.66 L23.22,93.36 M23.22,93.36 L22.82,95.02 M22.82,95.02 L22.06,96.54 M22.06,96.54 L20.96,97.85 M20.96,97.85 L19.6,98.86 M19.6,98.86 L18.03,99.54 M18.03,99.54 L16.35,99.83 M16.35,99.83 L14.65,99.74 M14.65,99.74 L13.02,99.25 M13.02,99.25 L11.54,98.39 M11.54,98.39 L10.3,97.23 M10.3,97.23 L9.37,95.8 M9.37,95.8 L8.78,94.2 M8.78,94.2 L8.59,92.51" id="Shape"></path>
                <path d="M8.59,56.66 L8.78,54.97 M8.78,54.97 L9.37,53.37 M9.37,53.37 L10.3,51.94 M10.3,51.94 L11.54,50.77 M11.54,50.77 L13.02,49.92 M13.02,49.92 L14.65,49.43 M14.65,49.43 L16.35,49.33 M16.35,49.33 L18.03,49.63 M18.03,49.63 L19.6,50.3 M19.6,50.3 L20.96,51.32 M20.96,51.32 L22.06,52.63 M22.06,52.63 L22.82,54.15 M22.82,54.15 L23.22,55.81 M23.22,55.81 L23.22,57.51 M23.22,57.51 L22.82,59.17 M22.82,59.17 L22.06,60.69 M22.06,60.69 L20.96,62 M20.96,62 L19.6,63.02 M19.6,63.02 L18.03,63.69 M18.03,63.69 L16.35,63.99 M16.35,63.99 L14.65,63.89 M14.65,63.89 L13.02,63.4 M13.02,63.4 L11.54,62.55 M11.54,62.55 L10.3,61.38 M10.3,61.38 L9.37,59.95 M9.37,59.95 L8.78,58.35 M8.78,58.35 L8.59,56.66" id="Shape"></path>
            </g>
        </g>
    </g>
</svg>